<svg width="90" height="89" viewBox="0 0 90 89" fill="none" xmlns="http://www.w3.org/2000/svg">
<circle cx="37" cy="52" r="37" fill="#46A358" fill-opacity="0.13"/>
<g clip-path="url(#clip0_82645_304)">
<path d="M51.3006 44.0271C51.3204 44.5113 51.4594 44.9693 51.7176 45.3815C51.9393 45.7414 52.5052 45.3979 52.2835 45.0413C52.0882 44.7239 51.979 44.3869 51.9658 44.0172C51.9459 43.5952 51.284 43.6083 51.3006 44.0271Z" fill="#46A358"/>
<path d="M59.8093 43.9843C59.7762 44.1675 59.7398 44.3474 59.7067 44.5307C59.6736 44.7041 59.7663 44.884 59.945 44.9298C60.1105 44.9723 60.3157 44.8676 60.3488 44.6942C60.3819 44.511 60.4183 44.3311 60.4514 44.1479C60.4845 43.9745 60.3918 43.7945 60.2131 43.7487C60.0476 43.7062 59.8424 43.8109 59.8093 43.9843Z" fill="#46A358"/>
<path d="M64.3401 44.6354C64.767 44.6256 64.7537 43.9713 64.3268 43.9811C63.8999 43.9909 63.9131 44.6452 64.3401 44.6354Z" fill="#46A358"/>
<path d="M39.4823 45.7936C39.9092 45.7838 39.896 45.1295 39.469 45.1393C39.0421 45.1491 39.0554 45.8034 39.4823 45.7936Z" fill="#46A358"/>
<path d="M51.5885 4.38719C49.0335 11.8368 47.6402 19.6398 47.488 27.5082C47.4119 31.4636 47.6469 35.4224 48.1929 39.3418C48.4445 41.1478 48.7622 42.9472 49.1461 44.7303C49.4472 46.124 49.6028 47.7174 50.6486 48.7807C51.0954 49.2354 51.7804 48.5255 51.337 48.074C50.2084 46.9256 50.0926 44.498 49.8014 42.9963C49.434 41.0987 49.1428 39.1848 48.9276 37.2611C48.5206 33.6229 48.3849 29.9587 48.5139 26.3009C48.7754 18.92 50.1555 11.6209 52.5516 4.62929C52.7567 4.03057 51.7904 3.79174 51.5885 4.38719Z" fill="#46A358"/>
<path d="M55.4408 4.52147C56.7778 11.9646 56.8109 19.5712 57.079 27.1059C57.2047 30.6459 57.4199 34.1956 57.347 37.7389C57.2709 41.4162 56.5461 44.8744 55.5698 48.4078C55.4011 49.0196 56.3641 49.2585 56.5329 48.6499C57.4496 45.3423 58.1777 42.0771 58.3167 38.6353C58.4723 34.7911 58.2108 30.9272 58.0751 27.0895C57.8038 19.4633 57.7475 11.7781 56.3939 4.24338C56.2814 3.62176 55.3282 3.90313 55.4408 4.52147Z" fill="#46A358"/>
<path d="M62.629 17.3104C63.0824 27.4951 63.4928 37.8042 60.9776 47.7796C60.822 48.3947 61.7851 48.6335 61.9407 48.0217C64.4757 37.9613 64.0819 27.5606 63.6219 17.2908C63.5921 16.6593 62.5993 16.6757 62.629 17.3104Z" fill="#46A358"/>
<path d="M59.8226 17.4608C58.416 19.0868 57.4761 20.9778 57.0624 23.0815C56.94 23.6999 57.903 23.9453 58.0255 23.3236C58.4061 21.3803 59.2368 19.6463 60.5374 18.1413C60.9511 17.6604 60.2396 16.9798 59.8226 17.4608Z" fill="#46A358"/>
<path d="M69.6055 23.7164C69.5823 31.0908 68.5829 38.3965 66.6236 45.5124C66.4548 46.1242 67.4179 46.363 67.5867 45.7545C69.5658 38.5568 70.5752 31.1562 70.5984 23.6968C70.5984 23.0654 69.6055 23.085 69.6055 23.7164Z" fill="#46A358"/>
<path d="M67.7191 21.5211C65.1509 24.4624 63.89 28.0841 62.9832 31.8106C62.8342 32.4257 63.7973 32.6678 63.9462 32.0527C64.8133 28.5029 65.9849 25.012 68.4372 22.2017C68.8509 21.724 68.1361 21.0402 67.7191 21.5211Z" fill="#46A358"/>
<path d="M43.7549 10.4171C45.5222 14.5329 46.8062 18.7991 47.6005 23.1995C47.713 23.8212 48.6629 23.5365 48.5537 22.9182C47.7594 18.5178 46.472 14.2515 44.708 10.1357C44.4598 9.56317 43.5067 9.83472 43.7549 10.4171Z" fill="#46A358"/>
<path d="M41.9148 10.7735C41.3952 17.0192 40.8855 23.3434 41.9379 29.5661C43.04 36.0571 45.7472 42.3911 47.8289 48.6236C48.0275 49.2224 48.9806 48.9443 48.782 48.3423C46.7665 42.2995 44.1619 36.1553 42.997 29.8867C41.8254 23.5756 42.3781 17.101 42.9076 10.7539C42.9606 10.1258 41.9677 10.1487 41.9148 10.7735Z" fill="#46A358"/>
<path d="M35.5969 25.8625C38.9097 28.9117 41.5938 32.4779 43.6059 36.4857C43.8906 37.0517 44.7345 36.5348 44.4532 35.972C42.4046 31.8922 39.6577 28.2574 36.2853 25.1526C35.8187 24.724 35.1303 25.4307 35.5969 25.8625Z" fill="#46A358"/>
<path d="M33.3233 27.1222C35.8882 34.6994 39.34 41.9364 43.6258 48.7087C43.9634 49.2453 44.8139 48.7349 44.473 48.1951C40.2302 41.4914 36.8148 34.3395 34.2764 26.8408C34.0745 26.2454 33.1214 26.5202 33.3233 27.1222Z" fill="#46A358"/>
<path d="M39.0686 46.7619C37.6058 44.1773 35.4612 42.0278 32.7938 40.6602C32.251 40.3821 31.7314 40.4541 32.7838 40.3494C33.1677 40.3102 33.5649 40.2938 33.9488 40.3004C35.1998 40.3134 36.3316 40.5359 37.4072 41.2066C38.6582 41.9853 39.7504 43.1042 40.869 44.0563C41.3522 44.4685 42.0405 43.7618 41.5574 43.3496C40.1409 42.139 38.7376 40.6275 37.0002 39.875C36.0305 39.453 34.9813 39.3287 33.9289 39.3254C33.2604 39.3221 31.8704 39.1978 31.3111 39.7605C30.219 40.8533 32.3106 41.4978 32.9625 41.8806C35.1998 43.1827 36.9604 45.0541 38.2214 47.2854C38.5325 47.8285 39.3797 47.3148 39.0686 46.7619Z" fill="#46A358"/>
<path d="M69.2812 38.7923C70.2509 36.6559 72.5046 35.9852 74.6492 35.5402C74.9636 35.4748 75.0894 35.0626 74.9305 34.8139C73.7656 32.9949 71.6442 32.8084 69.6551 32.9883C69.023 33.0439 69.0363 34.0254 69.675 33.9698C71.2801 33.8259 73.1169 33.816 74.0833 35.3276C74.1759 35.0855 74.2719 34.8434 74.3646 34.6013C71.9751 35.0953 69.483 35.9492 68.4141 38.3146C68.1526 38.8872 69.0197 39.3681 69.2812 38.7923Z" fill="#46A358"/>
<path d="M35.4314 24.9137C34.9946 25.483 34.5048 26.1929 33.78 26.4219C33.0651 26.6477 32.3006 26.3238 32.3569 25.4699C32.3999 24.8025 32.9791 24.315 33.5417 24.0369C34.197 23.713 35.9941 23.5592 35.5175 24.8025C35.2924 25.3946 36.2555 25.6269 36.4806 25.0446C36.9406 23.8439 35.8352 22.7936 34.6636 22.7707C33.4325 22.7478 31.9995 23.5559 31.5361 24.7108C31.1026 25.7807 31.556 27.1188 32.7607 27.4231C34.2334 27.7928 35.3487 26.6379 36.1496 25.5975C36.5302 25.0936 35.8187 24.4099 35.4314 24.9137Z" fill="#46A358"/>
<path d="M43.9965 9.68071C43.3776 9.79522 42.4807 10.1944 41.8618 9.8672C41.243 9.53676 41.3555 8.71557 41.7129 8.24117C42.0869 7.74715 42.676 7.5672 43.2717 7.73079C43.7549 7.86493 45.2607 9.11471 44.2116 9.54657C43.6291 9.78541 43.9038 10.7309 44.4962 10.4888C45.7373 9.97844 45.6943 8.55852 44.8967 7.64573C44.0924 6.72311 42.6528 6.37304 41.5772 7.04374C40.6373 7.63264 40.1144 8.91514 40.6241 9.94245C41.3455 11.4016 43.0334 10.852 44.2811 10.623C44.9066 10.5052 44.6187 9.56293 43.9965 9.68071Z" fill="#46A358"/>
<path d="M55.7916 3.6937C54.9311 3.9129 53.9283 4.17136 53.0414 3.9587C51.7937 3.66425 51.7473 2.25089 52.6244 1.51803C53.326 0.932397 54.4016 0.866963 55.2521 1.12215C55.7883 1.28247 56.4171 1.62927 56.5627 2.21162C56.7017 2.758 56.4336 3.29782 55.8776 3.43196C55.2587 3.58246 55.54 4.5247 56.1622 4.37421C57.6416 4.01432 57.9659 2.19199 57.0558 1.11888C56.0299 -0.0883685 53.9713 -0.294485 52.5913 0.372939C51.2939 1.0011 50.503 2.68929 51.3668 3.97833C52.3662 5.47349 54.62 5.00237 56.0729 4.6294C56.6918 4.47563 56.4105 3.53338 55.7916 3.6937Z" fill="#46A358"/>
<path d="M62.8706 13.3419C61.4442 13.09 59.8821 13.4989 59.2302 14.8959C58.7006 16.0279 59.2004 17.4969 60.4315 17.9222C61.6726 18.3508 63.5557 17.8208 64.2441 16.6823C64.9027 15.5863 64.4261 14.1958 63.3869 13.5414C62.8475 13.2012 62.3676 14.0616 62.9037 14.3986C63.5722 14.8174 63.7907 15.7695 63.2446 16.3813C62.7581 16.9276 61.7189 17.1599 61.014 17.0356C60.1072 16.8753 59.7564 15.9363 60.2098 15.1609C60.7062 14.3136 61.7288 14.1369 62.629 14.2939C63.2545 14.4052 63.4994 13.4531 62.8706 13.3419Z" fill="#46A358"/>
<path d="M70.5653 18.7662C69.3109 18.6844 67.5735 18.8611 67.2955 20.3791C67.0671 21.6224 68.4968 23.2648 69.5923 23.7064C72.7197 24.966 73.3883 18.6844 70.691 18.8513C70.0556 18.8905 70.0721 19.872 70.7109 19.8328C71.5879 19.7771 71.3728 21.8285 71.1742 22.2342C70.7076 23.1993 69.814 22.846 69.2249 22.2309C68.7715 21.7565 67.9574 20.9157 68.4273 20.2352C68.8807 19.5808 69.8934 19.7052 70.5851 19.7477C71.2238 19.7902 71.1974 18.8087 70.5653 18.7662Z" fill="#46A358"/>
<path d="M52.6376 6.17667C52.5383 6.50711 52.4357 6.83755 52.3364 7.16799C52.214 7.57368 52.856 7.73072 52.9785 7.3283C53.0778 6.99786 53.1804 6.66742 53.2797 6.33698C53.4021 5.9313 52.7601 5.77425 52.6376 6.17667Z" fill="#46A358"/>
<path d="M54.0508 6.23258C54.0541 6.45178 54.0607 6.66771 54.064 6.88692C54.0739 7.30896 54.7358 7.29588 54.7259 6.87383C54.7226 6.65463 54.716 6.43869 54.7127 6.21949C54.7061 5.79744 54.0441 5.81053 54.0508 6.23258Z" fill="#46A358"/>
<path d="M53.5808 10.1681C54.0077 10.1583 53.9945 9.50397 53.5676 9.51378C53.144 9.52032 53.1572 10.1747 53.5808 10.1681Z" fill="#46A358"/>
<path d="M51.605 10.5347C51.5753 10.8978 51.5455 11.2643 51.519 11.6274C51.5058 11.8041 51.6911 11.9513 51.8566 11.9481C52.0518 11.9448 52.1677 11.791 52.1809 11.6143C52.2107 11.2512 52.2405 10.8848 52.2669 10.5216C52.2802 10.3449 52.0948 10.1977 51.9294 10.201C51.7341 10.2043 51.6183 10.358 51.605 10.5347Z" fill="#46A358"/>
<path d="M53.1704 11.5946C53.1804 11.9938 53.187 12.3929 53.1969 12.7953C53.2068 13.2174 53.8687 13.2043 53.8588 12.7823C53.8489 12.3831 53.8423 11.984 53.8323 11.5816C53.8224 11.1595 53.1605 11.1726 53.1704 11.5946Z" fill="#46A358"/>
<path d="M54.342 9.27835C54.385 9.60551 54.4281 9.93268 54.4711 10.2566C54.4942 10.4332 54.6167 10.5805 54.8087 10.5772C54.9708 10.5739 55.1562 10.4202 55.133 10.2435C55.09 9.91632 55.0469 9.58915 55.0039 9.26526C54.9807 9.08859 54.8583 8.94136 54.6663 8.94463C54.5009 8.94791 54.3155 9.10167 54.342 9.27835Z" fill="#46A358"/>
<path d="M54.438 14.1859C54.4413 14.3692 54.4446 14.5491 54.4479 14.7323C54.4578 15.1544 55.1197 15.1413 55.1098 14.7192C55.1065 14.536 55.1032 14.3561 55.0999 14.1729C55.09 13.7508 54.4281 13.7639 54.438 14.1859Z" fill="#46A358"/>
<path d="M53.005 8.86951C52.9719 9.1934 53.0447 9.49767 53.1804 9.79212C53.2532 9.95244 53.4981 9.98515 53.6371 9.90009C53.8059 9.79867 53.8191 9.61218 53.7463 9.4486C53.6603 9.26211 53.647 9.05599 53.6669 8.85315C53.6834 8.67648 53.4915 8.52925 53.3293 8.53252C53.134 8.53907 53.0215 8.69284 53.005 8.86951Z" fill="#46A358"/>
<path d="M50.6949 14.0648C50.6287 14.4313 50.5625 14.7944 50.4963 15.1608C50.4202 15.5731 51.0623 15.7367 51.1384 15.3212C51.2046 14.9547 51.2708 14.5916 51.337 14.2251C51.4098 13.8129 50.771 13.6493 50.6949 14.0648Z" fill="#46A358"/>
<path d="M52.5185 16.3224C52.4887 16.5776 52.4556 16.8327 52.4258 17.0879C52.4059 17.2646 52.4754 17.438 52.6641 17.4871C52.8196 17.5263 53.0447 17.4282 53.0678 17.2515C53.0976 16.9963 53.1307 16.7411 53.1605 16.486C53.1804 16.3093 53.1109 16.1359 52.9222 16.0868C52.7667 16.0443 52.5416 16.1457 52.5185 16.3224Z" fill="#46A358"/>
<path d="M51.936 20.9779C51.9889 21.256 51.9558 21.5275 51.8665 21.7926C51.7308 22.1917 52.3728 22.352 52.5085 21.9529C52.6376 21.5734 52.6475 21.184 52.5714 20.7914C52.5383 20.618 52.3199 20.5231 52.161 20.5722C51.9724 20.6278 51.8996 20.8045 51.936 20.9779Z" fill="#46A358"/>
<path d="M49.9139 18.3377C49.8841 18.5929 49.851 18.848 49.8212 19.1032C49.8014 19.2799 49.8709 19.4533 50.0595 19.5024C50.215 19.5416 50.4401 19.4435 50.4633 19.2668C50.493 19.0116 50.5261 18.7564 50.5559 18.5012C50.5758 18.3246 50.5063 18.1512 50.3176 18.1021C50.1588 18.0628 49.9337 18.161 49.9139 18.3377Z" fill="#46A358"/>
<path d="M54.4214 18.8579C54.5009 19.2211 54.577 19.5842 54.6564 19.9441C54.7458 20.3564 55.3812 20.1666 55.2918 19.7576C55.2124 19.3945 55.1363 19.0313 55.0569 18.6714C54.9675 18.2592 54.3354 18.4457 54.4214 18.8579Z" fill="#46A358"/>
<path d="M54.855 23.6674C54.8616 24.0305 54.8715 24.3937 54.8781 24.7569C54.8881 25.1789 55.55 25.1658 55.5401 24.7438C55.5334 24.3806 55.5235 24.0175 55.5169 23.6543C55.5103 23.2323 54.8484 23.2453 54.855 23.6674Z" fill="#46A358"/>
<path d="M54.0739 28.4636C54.117 28.7187 54.1567 28.9707 54.1997 29.2259C54.2295 29.3993 54.4545 29.4909 54.6101 29.4451C54.7987 29.3894 54.8616 29.2128 54.8318 29.0394C54.7888 28.7842 54.7491 28.5323 54.7061 28.2771C54.6763 28.1037 54.4512 28.0121 54.2957 28.0579C54.107 28.1102 54.0441 28.2869 54.0739 28.4636Z" fill="#46A358"/>
<path d="M51.3734 26.0295C51.3767 26.2487 51.3833 26.4646 51.3866 26.6838C51.3965 27.1058 52.0584 27.0928 52.0485 26.6707C52.0452 26.4515 52.0386 26.2356 52.0353 26.0164C52.0287 25.5943 51.3668 25.6074 51.3734 26.0295Z" fill="#46A358"/>
<path d="M49.5498 23.2289C49.573 23.5004 49.5465 23.7556 49.4671 24.0174C49.3446 24.423 49.9867 24.5801 50.1091 24.1777C50.2051 23.8669 50.2382 23.5397 50.2117 23.2158C50.1753 22.8003 49.5134 22.8101 49.5498 23.2289Z" fill="#46A358"/>
<path d="M50.3805 30.7603C50.3474 31.0155 50.3176 31.2706 50.2845 31.5258C50.2614 31.7025 50.3342 31.8759 50.5228 31.925C50.6784 31.9642 50.9034 31.8661 50.9266 31.6894C50.9597 31.4342 50.9895 31.179 51.0226 30.9238C51.0457 30.7472 50.9729 30.5738 50.7843 30.5247C50.6254 30.4854 50.4037 30.5836 50.3805 30.7603Z" fill="#46A358"/>
<path d="M53.7562 34.4672C53.7992 34.6831 53.839 34.9023 53.882 35.1182C53.9151 35.2916 54.1335 35.3865 54.2924 35.3374C54.4777 35.2818 54.5472 35.1051 54.5141 34.9317C54.4711 34.7158 54.4314 34.4966 54.3883 34.2807C54.3552 34.1073 54.1368 34.0124 53.978 34.0615C53.7926 34.1171 53.7231 34.2938 53.7562 34.4672Z" fill="#46A358"/>
<path d="M51.9658 38.2131C52.0452 38.5763 52.1279 38.9362 52.2074 39.2993C52.3 39.7116 52.9322 39.5218 52.8428 39.1129C52.7634 38.7497 52.6806 38.3898 52.6012 38.0267C52.5085 37.6144 51.8731 37.8009 51.9658 38.2131Z" fill="#46A358"/>
<path d="M55.6592 40.5818C55.5897 40.837 55.5235 41.0922 55.454 41.3507C55.3448 41.7596 55.9868 41.9199 56.0961 41.511C56.1656 41.2558 56.2317 41.0006 56.3012 40.7421C56.4105 40.3332 55.7684 40.1729 55.6592 40.5818Z" fill="#46A358"/>
<path d="M55.1661 12.1869C55.2091 12.4421 55.2521 12.6941 55.2952 12.9492C55.3249 13.1226 55.55 13.2143 55.7055 13.1684C55.8942 13.1128 55.9571 12.9362 55.9273 12.7628C55.8842 12.5076 55.8412 12.2556 55.7982 12.0005C55.7684 11.8271 55.5434 11.7355 55.3878 11.7813C55.2025 11.8369 55.1363 12.0135 55.1661 12.1869Z" fill="#46A358"/>
<path d="M55.2455 16.679C55.2918 17.0061 55.3382 17.33 55.3845 17.6572C55.411 17.8306 55.5268 17.9811 55.7221 17.9778C55.8842 17.9746 56.0696 17.8208 56.0464 17.6441C56.0001 17.317 55.9537 16.9931 55.9074 16.6659C55.8809 16.4925 55.7651 16.342 55.5698 16.3453C55.4077 16.3485 55.219 16.5056 55.2455 16.679Z" fill="#46A358"/>
<path d="M60.2098 20.3107C60.1204 20.8243 60.0278 21.3347 59.9384 21.8484C59.8656 22.2606 60.5076 22.4242 60.5804 22.0087C60.6698 21.495 60.7625 20.9846 60.8518 20.471C60.9246 20.0588 60.2826 19.8952 60.2098 20.3107Z" fill="#46A358"/>
<path d="M61.4972 19.3881C61.5038 19.6433 61.5071 19.8985 61.5137 20.1504C61.5237 20.5724 62.1856 20.5594 62.1756 20.1373C62.169 19.8821 62.1657 19.6269 62.1591 19.375C62.1492 18.953 61.4906 18.966 61.4972 19.3881Z" fill="#46A358"/>
<path d="M61.1364 22.8854C61.0736 23.4318 61.014 23.9781 60.9511 24.5245C60.9048 24.9433 61.5667 24.9237 61.613 24.5114C61.6759 23.9651 61.7355 23.4187 61.7983 22.8723C61.8447 22.4568 61.1828 22.4732 61.1364 22.8854Z" fill="#46A358"/>
<path d="M59.4221 23.8439C59.2798 24.1383 59.1408 24.4328 58.9985 24.724C58.8165 25.1035 59.3956 25.4241 59.5777 25.0413C59.72 24.7469 59.859 24.4524 60.0013 24.1613C60.1833 23.7817 59.6041 23.4611 59.4221 23.8439Z" fill="#46A358"/>
<path d="M58.426 22.0937C58.3399 22.3162 58.2572 22.5354 58.1711 22.7579C58.1082 22.9247 58.2505 23.1145 58.4094 23.157C58.598 23.2061 58.747 23.085 58.8132 22.9215C58.8992 22.699 58.9819 22.4798 59.068 22.2573C59.1309 22.0904 58.9886 21.9007 58.8297 21.8582C58.6411 21.8091 58.4921 21.9269 58.426 22.0937Z" fill="#46A358"/>
<path d="M60.3157 26.3925C60.3024 26.6837 60.2925 26.9749 60.2793 27.266C60.2627 27.6881 60.9246 27.6717 60.9412 27.253C60.9544 26.9618 60.9643 26.6706 60.9776 26.3794C60.9941 25.9574 60.3322 25.9737 60.3157 26.3925Z" fill="#46A358"/>
<path d="M61.6726 28.1101C61.6593 28.3817 61.6461 28.6565 61.6329 28.9281C61.6229 29.1047 61.8017 29.2519 61.9704 29.2487C62.1591 29.2454 62.2848 29.0916 62.2948 28.915C62.308 28.6434 62.3213 28.3686 62.3345 28.097C62.3444 27.9204 62.1657 27.7731 61.9969 27.7764C61.8083 27.7797 61.6825 27.9335 61.6726 28.1101Z" fill="#46A358"/>
<path d="M61.1497 31.035C61.1199 31.2706 61.0868 31.5094 61.057 31.745C61.0339 31.9184 61.11 32.095 61.2953 32.1441C61.4542 32.1834 61.6759 32.0852 61.6991 31.9085C61.7288 31.673 61.7619 31.4342 61.7917 31.1986C61.8149 31.0252 61.7388 30.8485 61.5534 30.7995C61.3946 30.7569 61.1728 30.8583 61.1497 31.035Z" fill="#46A358"/>
<path d="M58.6808 29.0133C58.6477 29.2129 58.6146 29.4157 58.5815 29.6153C58.5517 29.7887 58.6378 29.9653 58.8198 30.0144C58.9819 30.0537 59.1938 29.9523 59.2235 29.7789C59.2566 29.5793 59.2897 29.3764 59.3228 29.1769C59.3526 29.0035 59.2666 28.8268 59.0845 28.7777C58.9224 28.7352 58.7106 28.8366 58.6808 29.0133Z" fill="#46A358"/>
<path d="M59.1574 34.2152C59.1607 34.3592 59.164 34.5064 59.1673 34.6504C59.1772 35.0724 59.8391 35.0593 59.8292 34.6373C59.8259 34.4933 59.8226 34.3461 59.8193 34.2022C59.8093 33.7801 59.1474 33.7932 59.1574 34.2152Z" fill="#46A358"/>
<path d="M61.2953 36.1357C61.2986 36.2796 61.3019 36.4268 61.3052 36.5708C61.3152 36.9928 61.9771 36.9797 61.9671 36.5577C61.9638 36.4137 61.9605 36.2665 61.9572 36.1226C61.9473 35.7005 61.2854 35.7136 61.2953 36.1357Z" fill="#46A358"/>
<path d="M59.389 40.101C59.4155 40.3562 59.389 40.5918 59.3063 40.8339C59.25 41.0007 59.3824 41.1905 59.5446 41.233C59.7299 41.2788 59.8888 41.1643 59.9483 40.9974C60.0476 40.7063 60.084 40.3955 60.0509 40.0912C60.0311 39.9145 59.902 39.7673 59.7134 39.7706C59.5446 39.7706 59.3692 39.9243 59.389 40.101Z" fill="#46A358"/>
<path d="M60.2065 18.6517C60.1204 18.8185 60.0311 18.9854 59.945 19.149C59.7498 19.5219 60.3256 19.8425 60.5242 19.4663C60.6102 19.2994 60.6996 19.1326 60.7856 18.969C60.9809 18.596 60.405 18.2754 60.2065 18.6517Z" fill="#46A358"/>
<path d="M43.04 12.4323C43.0996 12.7758 43.1625 13.1226 43.222 13.4662C43.2518 13.6396 43.4769 13.7312 43.6324 13.6854C43.8211 13.6297 43.8873 13.4531 43.8542 13.2797C43.7946 12.9361 43.7317 12.5893 43.6721 12.2458C43.6423 12.0724 43.4173 11.9808 43.2618 12.0266C43.0731 12.0822 43.0069 12.2589 43.04 12.4323Z" fill="#46A358"/>
<path d="M44.0262 14.595C44.1785 14.9549 44.334 15.318 44.4863 15.6779C44.5558 15.8415 44.7146 15.9527 44.8967 15.8971C45.0522 15.8513 45.1879 15.655 45.1184 15.4914C44.9662 15.1315 44.8106 14.7684 44.6584 14.4085C44.5889 14.2449 44.43 14.1337 44.248 14.1893C44.0924 14.2351 43.9567 14.4314 44.0262 14.595Z" fill="#46A358"/>
<path d="M43.1228 15.8021C43.0466 16.306 43.0533 16.7869 43.1426 17.2842C43.2154 17.6964 43.8475 17.51 43.778 17.0977C43.7118 16.7248 43.7118 16.3387 43.7681 15.9624C43.8244 15.5502 43.1823 15.3866 43.1228 15.8021Z" fill="#46A358"/>
<path d="M44.3804 17.6931C44.4929 18.0006 44.6021 18.3114 44.7146 18.619C44.8569 19.0149 45.4924 18.8316 45.3501 18.4325C45.2375 18.125 45.1283 17.8141 45.0158 17.5066C44.8735 17.1107 44.2381 17.294 44.3804 17.6931Z" fill="#46A358"/>
<path d="M42.8414 19.0019C42.8481 19.365 42.858 19.7282 42.8646 20.0913C42.8745 20.5134 43.5364 20.5003 43.5265 20.0783C43.5199 19.7151 43.51 19.3519 43.5033 18.9888C43.4967 18.5667 42.8348 18.5798 42.8414 19.0019Z" fill="#46A358"/>
<path d="M44.0825 20.2321C44.0891 20.5593 44.0958 20.8864 44.1024 21.2136C44.1123 21.6356 44.7742 21.6226 44.7643 21.2005C44.7577 20.8733 44.751 20.5462 44.7444 20.219C44.7345 19.797 44.0726 19.81 44.0825 20.2321Z" fill="#46A358"/>
<path d="M45.9325 20.8799C46.0649 21.2594 46.2006 21.6389 46.333 22.0184C46.472 22.4143 47.1074 22.2311 46.9684 21.8319C46.836 21.4524 46.7003 21.0729 46.568 20.6934C46.429 20.2975 45.7935 20.4807 45.9325 20.8799Z" fill="#46A358"/>
<path d="M46.6573 24.1383C46.697 24.3379 46.7401 24.5375 46.7798 24.737C46.8162 24.9104 47.0313 25.0053 47.1901 24.9562C47.3755 24.9006 47.4483 24.7239 47.4119 24.5505C47.3722 24.351 47.3291 24.1514 47.2894 23.9518C47.253 23.7784 47.0379 23.6835 46.8791 23.7326C46.697 23.785 46.6209 23.9649 46.6573 24.1383Z" fill="#46A358"/>
<path d="M44.8404 24.1743C44.9496 24.4818 45.029 24.7959 45.0654 25.1198C45.0853 25.2965 45.2144 25.4437 45.403 25.4404C45.5685 25.4372 45.7472 25.2834 45.7273 25.1067C45.6843 24.7239 45.6049 24.351 45.4758 23.9878C45.3335 23.5919 44.6981 23.7752 44.8404 24.1743Z" fill="#46A358"/>
<path d="M43.1426 22.8691C43.1492 23.1242 43.1525 23.3794 43.1592 23.6314C43.1691 24.0534 43.831 24.0403 43.8211 23.6183C43.8144 23.3631 43.8111 23.1079 43.8045 22.856C43.7946 22.4339 43.136 22.447 43.1426 22.8691Z" fill="#46A358"/>
<path d="M43.9402 26.7787C43.9667 27.1059 44.0296 27.4265 44.1388 27.734C44.2811 28.1299 44.9165 27.9467 44.7742 27.5475C44.6815 27.2924 44.622 27.0339 44.6021 26.7656C44.5723 26.3468 43.9104 26.3599 43.9402 26.7787Z" fill="#46A358"/>
<path d="M45.3898 29.563C45.4493 29.7626 45.5089 29.9622 45.5685 30.1585C45.6876 30.5609 46.3231 30.3777 46.2039 29.972C46.1443 29.7724 46.0848 29.5761 46.0252 29.3765C45.9061 28.9741 45.2706 29.1573 45.3898 29.563Z" fill="#46A358"/>
<path d="M46.1675 27.0371C46.2072 27.181 46.2469 27.325 46.2866 27.4722C46.3992 27.8779 47.0346 27.6914 46.9221 27.2857C46.8824 27.1418 46.8426 26.9978 46.8029 26.8506C46.6904 26.4449 46.055 26.6314 46.1675 27.0371Z" fill="#46A358"/>
<path d="M44.291 32.4779C44.3737 32.8018 44.4532 33.129 44.5359 33.4529C44.6385 33.8618 45.2739 33.6753 45.1713 33.2664C45.0886 32.9425 45.0092 32.6153 44.9264 32.2914C44.8238 31.8824 44.1884 32.0689 44.291 32.4779Z" fill="#46A358"/>
<path d="M45.9358 37.2415C45.9954 37.3854 46.0517 37.5294 46.1112 37.6733C46.1774 37.8369 46.3396 37.9481 46.5216 37.8925C46.6805 37.8467 46.8096 37.6504 46.7434 37.4868C46.6838 37.3429 46.6275 37.1989 46.568 37.055C46.5018 36.8914 46.3396 36.7802 46.1576 36.8358C45.9987 36.8816 45.8697 37.0779 45.9358 37.2415Z" fill="#46A358"/>
<path d="M67.4808 23.6836C67.3054 24.0336 67.1267 24.3804 66.9513 24.7305C66.7593 25.1068 67.3385 25.4274 67.5304 25.0479C67.7058 24.6978 67.8845 24.351 68.06 24.0009C68.2519 23.6247 67.6727 23.3073 67.4808 23.6836Z" fill="#46A358"/>
<path d="M68.4075 24.5047C68.3247 24.8352 68.2387 25.1623 68.1559 25.4928C68.05 25.9017 68.6921 26.0621 68.798 25.6531C68.8807 25.3227 68.9668 24.9955 69.0495 24.6651C69.1521 24.2594 68.51 24.0991 68.4075 24.5047Z" fill="#46A358"/>
<path d="M67.5933 27.6325C67.5106 27.9073 67.4278 28.1821 67.3418 28.457C67.2193 28.8627 67.8614 29.0197 67.9838 28.6173C68.0666 28.3425 68.1493 28.0676 68.2354 27.7928C68.3545 27.3904 67.7125 27.2301 67.5933 27.6325Z" fill="#46A358"/>
<path d="M67.0373 26.3076C66.9678 26.4352 66.895 26.566 66.8255 26.6936C66.6203 27.0633 67.1995 27.384 67.4047 27.011C67.4742 26.8834 67.547 26.7525 67.6165 26.6249C67.8217 26.2585 67.2425 25.9379 67.0373 26.3076Z" fill="#46A358"/>
<path d="M68.6722 26.4646C68.6424 26.7198 68.6126 26.975 68.5829 27.2302C68.563 27.4069 68.6325 27.5803 68.8211 27.6293C68.9767 27.6686 69.2017 27.5704 69.2249 27.3938C69.2547 27.1386 69.2845 26.8834 69.3143 26.6282C69.3341 26.4515 69.2646 26.2781 69.076 26.2291C68.9171 26.1898 68.6921 26.2879 68.6722 26.4646Z" fill="#46A358"/>
<path d="M65.5547 28.1625C65.4885 28.3719 65.3892 28.5616 65.27 28.7448C65.0384 29.0982 65.6175 29.4155 65.8492 29.0622C66.0014 28.8332 66.114 28.5845 66.1967 28.3228C66.2497 28.1559 66.1239 27.9662 65.9584 27.9236C65.7731 27.8811 65.6076 27.9923 65.5547 28.1625Z" fill="#46A358"/>
<path d="M65.5348 30.9761C65.3925 31.2084 65.323 31.4734 65.3362 31.745C65.3561 32.1638 66.018 32.1539 65.9981 31.7319C65.9915 31.5683 66.0246 31.4342 66.114 31.2968C66.3357 30.9336 65.7565 30.6162 65.5348 30.9761Z" fill="#46A358"/>
<path d="M67.259 30.2565C67.1929 30.4757 67.1267 30.6982 67.0638 30.9174C66.9446 31.3231 67.5867 31.4801 67.7058 31.0777C67.772 30.8585 67.8382 30.636 67.9011 30.4168C68.0202 30.0111 67.3782 29.8541 67.259 30.2565Z" fill="#46A358"/>
<path d="M66.713 33.4824C66.6435 33.7212 66.5773 33.9568 66.5078 34.1956C66.392 34.6013 67.034 34.7616 67.1498 34.3559C67.2193 34.1171 67.2855 33.8815 67.355 33.6427C67.4709 33.2403 66.8288 33.0799 66.713 33.4824Z" fill="#46A358"/>
<path d="M68.8112 28.8364C68.7947 28.9837 68.7814 29.1276 68.7649 29.2749C68.745 29.4515 68.9403 29.5987 69.1024 29.5955C69.301 29.5922 69.4069 29.4384 69.4268 29.2618C69.4433 29.1145 69.4566 28.9706 69.4731 28.8234C69.493 28.6467 69.2977 28.4995 69.1355 28.5027C68.937 28.5093 68.8311 28.6598 68.8112 28.8364Z" fill="#46A358"/>
<path d="M64.6545 35.3799C64.6214 35.4911 64.585 35.5991 64.5519 35.7103C64.4261 36.1127 65.0681 36.2731 65.1939 35.8706C65.227 35.7594 65.2634 35.6514 65.2965 35.5402C65.4223 35.1378 64.7802 34.9807 64.6545 35.3799Z" fill="#46A358"/>
<path d="M64.1216 38.7202C64.0521 38.9034 63.9793 39.0866 63.9098 39.2698C63.8469 39.4334 63.9893 39.6264 64.1481 39.669C64.3401 39.718 64.4857 39.597 64.5519 39.4334C64.6214 39.2502 64.6942 39.067 64.7637 38.8838C64.8265 38.7202 64.6842 38.5272 64.5254 38.4846C64.3334 38.4355 64.1878 38.5533 64.1216 38.7202Z" fill="#46A358"/>
<path d="M66.7262 37.3888C66.7295 37.4968 66.7295 37.608 66.7328 37.716C66.7428 38.138 67.4047 38.1249 67.3947 37.7029C67.3914 37.5949 67.3914 37.4837 67.3881 37.3757C67.3782 36.9537 66.7163 36.9668 66.7262 37.3888Z" fill="#46A358"/>
<path d="M65.4918 41.7237C65.4752 41.8709 65.462 42.0148 65.4454 42.1621C65.4256 42.3387 65.6208 42.486 65.783 42.4827C65.9816 42.4794 66.0875 42.3257 66.1073 42.149C66.1239 42.0018 66.1371 41.8578 66.1537 41.7106C66.1735 41.5339 65.9783 41.3867 65.8161 41.3899C65.6208 41.3932 65.5116 41.547 65.4918 41.7237Z" fill="#46A358"/>
<path d="M35.2593 28.0806C35.3156 28.2606 35.3752 28.4438 35.4314 28.6237C35.5572 29.0261 36.1926 28.8397 36.0669 28.4373C36.0106 28.2573 35.951 28.0741 35.8948 27.8942C35.7657 27.4917 35.1303 27.6782 35.2593 28.0806Z" fill="#46A358"/>
<path d="M35.9411 27.3381C36.1628 27.6097 36.3879 27.8812 36.6096 28.1495C36.7222 28.2869 36.9637 28.2574 37.0763 28.1397C37.212 27.999 37.1789 27.8158 37.0663 27.6784C36.8446 27.4068 36.6196 27.1353 36.3978 26.867C36.2853 26.7296 36.0437 26.759 35.9312 26.8768C35.7955 27.0142 35.8286 27.2007 35.9411 27.3381Z" fill="#46A358"/>
<path d="M37.212 29.6415C37.4039 29.9098 37.5959 30.1781 37.7845 30.4431C38.0294 30.7866 38.5953 30.4464 38.3504 30.1029C38.1585 29.8346 37.9665 29.5663 37.7779 29.3013C37.5297 28.9578 36.9637 29.2947 37.212 29.6415Z" fill="#46A358"/>
<path d="M36.3978 30.4233C36.5501 30.6752 36.7023 30.9271 36.8545 31.1791C37.073 31.5389 37.6389 31.1987 37.4205 30.8388C37.2682 30.5869 37.116 30.335 36.9637 30.083C36.742 29.7199 36.1794 30.0601 36.3978 30.4233Z" fill="#46A358"/>
<path d="M37.8805 33.1224C38.0724 33.4626 38.2677 33.8029 38.4596 34.1431C38.6681 34.5096 39.2341 34.1693 39.0256 33.8029C38.8336 33.4626 38.6384 33.1224 38.4464 32.7821C38.2346 32.4157 37.672 32.756 37.8805 33.1224Z" fill="#46A358"/>
<path d="M38.4663 32.131C38.5986 32.3273 38.731 32.5269 38.8634 32.7232C39.0984 33.0732 39.6643 32.733 39.4293 32.3829C39.297 32.1866 39.1646 31.987 39.0322 31.7907C38.7939 31.4407 38.228 31.7777 38.4663 32.131Z" fill="#46A358"/>
<path d="M38.7741 30.757C38.8833 30.9893 39.0686 31.1693 39.2903 31.3001C39.661 31.5128 39.982 30.9402 39.6114 30.7276C39.479 30.6523 39.3996 30.5509 39.3367 30.4168C39.2606 30.2565 39.0223 30.2237 38.88 30.3088C38.7178 30.4102 38.6979 30.5967 38.7741 30.757Z" fill="#46A358"/>
<path d="M36.2919 32.4745C36.3349 32.6544 36.3747 32.8344 36.4177 33.0176C36.4574 33.191 36.6659 33.2859 36.8281 33.2368C37.0101 33.1844 37.0895 33.0012 37.0498 32.8311C37.0068 32.6512 36.9671 32.4712 36.924 32.288C36.8843 32.1146 36.6758 32.0197 36.5137 32.0688C36.3316 32.1211 36.2522 32.3044 36.2919 32.4745Z" fill="#46A358"/>
<path d="M38.3802 35.8936C38.5325 36.2011 38.6847 36.5087 38.8336 36.8129C38.9131 36.9733 39.148 37.006 39.2903 36.9209C39.4558 36.8228 39.479 36.6297 39.3996 36.4694C39.2473 36.1619 39.0951 35.8543 38.9461 35.5501C38.8667 35.3898 38.6317 35.357 38.4894 35.4421C38.324 35.5435 38.3008 35.7366 38.3802 35.8936Z" fill="#46A358"/>
<path d="M40.8524 34.9679C40.9683 35.1838 41.0808 35.3997 41.1966 35.6156C41.3952 35.9886 41.9578 35.6451 41.7625 35.2754C41.6467 35.0595 41.5342 34.8435 41.4184 34.6276C41.2165 34.2546 40.6539 34.5949 40.8524 34.9679Z" fill="#46A358"/>
<path d="M41.607 39.6463C41.703 39.8263 41.7989 40.0062 41.8982 40.1829C42.1001 40.5558 42.6627 40.2123 42.4642 39.8426C42.3682 39.6627 42.2722 39.4827 42.1729 39.3061C41.971 38.9331 41.4051 39.2734 41.607 39.6463Z" fill="#46A358"/>
<path d="M42.7819 37.9875C42.8944 38.1675 43.0102 38.3474 43.1228 38.5273C43.3478 38.884 43.9137 38.5437 43.6887 38.1871C43.5762 38.0071 43.4603 37.8272 43.3478 37.6473C43.1194 37.2907 42.5535 37.6309 42.7819 37.9875Z" fill="#46A358"/>
<path d="M44.0991 43.0323C44.1917 43.1959 44.2877 43.3562 44.3804 43.5198C44.5922 43.8862 45.1548 43.5427 44.9463 43.1795C44.8536 43.0159 44.7577 42.8556 44.665 42.692C44.4532 42.3256 43.8873 42.6659 44.0991 43.0323Z" fill="#46A358"/>
<path d="M33.4259 41.0104C33.6476 41.1151 33.8727 41.2165 34.0944 41.3212C34.4783 41.5012 34.8026 40.9286 34.4154 40.7487C34.1937 40.644 33.9686 40.5426 33.7469 40.4379C33.3663 40.2612 33.042 40.8305 33.4259 41.0104Z" fill="#46A358"/>
<path d="M35.534 41.9624C35.7789 42.1358 36.0238 42.3124 36.2654 42.4858C36.4111 42.5905 36.6361 42.5022 36.7155 42.3582C36.8115 42.1881 36.7321 42.018 36.5865 41.9133C36.3416 41.7399 36.0967 41.5632 35.8551 41.3898C35.7094 41.2851 35.4844 41.3735 35.405 41.5174C35.3123 41.6875 35.3917 41.8577 35.534 41.9624Z" fill="#46A358"/>
<path d="M35.2097 40.9613C35.3785 40.9973 35.534 41.053 35.6863 41.138C36.0602 41.3409 36.3813 40.7683 36.0073 40.5655C35.8087 40.4575 35.5936 40.3757 35.3719 40.3266C34.9582 40.235 34.7927 40.8697 35.2097 40.9613Z" fill="#46A358"/>
<path d="M37.1491 42.3584C37.298 42.4631 37.4469 42.571 37.5959 42.6757C37.7415 42.7772 37.9665 42.6921 38.046 42.5481C38.1419 42.378 38.0625 42.2046 37.9169 42.1032C37.768 41.9985 37.619 41.8905 37.4701 41.7858C37.3245 41.6844 37.0994 41.7695 37.02 41.9134C36.9273 42.0836 37.0035 42.2537 37.1491 42.3584Z" fill="#46A358"/>
<path d="M37.1027 43.3366C37.1789 43.4446 37.255 43.5525 37.3311 43.6605C37.5727 44.004 38.1386 43.667 37.897 43.3202C37.8209 43.2123 37.7448 43.1043 37.6687 42.9963C37.4271 42.6495 36.8578 42.9898 37.1027 43.3366Z" fill="#46A358"/>
<path d="M38.602 43.8634C38.7509 43.9877 38.8998 44.1121 39.0521 44.2364C39.1877 44.3509 39.3896 44.3607 39.5187 44.2266C39.6378 44.1055 39.6478 43.8765 39.5088 43.7653C39.3598 43.6409 39.2109 43.5166 39.0587 43.3923C38.923 43.2778 38.7211 43.268 38.592 43.4021C38.4729 43.5199 38.463 43.7489 38.602 43.8634Z" fill="#46A358"/>
<path d="M72.7628 34.2251C72.4087 34.1597 72.0578 34.1662 71.707 34.2546C71.2933 34.3593 71.482 34.9874 71.8957 34.8827C72.1273 34.8238 72.3623 34.814 72.5973 34.8598C73.0176 34.9384 73.1798 34.3037 72.7628 34.2251Z" fill="#46A358"/>
<path d="M70.4792 34.9021C70.3534 34.997 70.2244 35.0886 70.0986 35.1835C69.9563 35.2882 69.8901 35.4714 69.9894 35.635C70.0754 35.7756 70.3005 35.8509 70.4461 35.7429C70.5719 35.648 70.7009 35.5564 70.8267 35.4616C70.969 35.3569 71.0352 35.1737 70.9359 35.0101C70.8499 34.8694 70.6248 34.7974 70.4792 34.9021Z" fill="#46A358"/>
<path d="M70.5851 34.5817C71.012 34.5719 70.9988 33.9175 70.5719 33.9274C70.1449 33.9372 70.1582 34.5915 70.5851 34.5817Z" fill="#46A358"/>
</g>
<g clip-path="url(#clip1_82645_304)">
<path d="M37.3859 47.6164C35.0446 53.6309 33.3971 59.9163 32.8568 66.3708C32.3966 71.8878 32.5367 77.8381 35.5582 82.6511C35.9051 83.2028 36.7589 82.6748 36.412 82.1197C33.3804 77.2931 33.3871 71.238 33.914 65.7243C34.501 59.5812 36.1285 53.5937 38.3564 47.8668C38.5898 47.261 37.6193 47.0173 37.3859 47.6164Z" fill="#727272"/>
<path d="M67.7884 46.6855C73.1145 50.7471 73.1212 58.1933 73.6948 64.3061C73.985 67.3895 74.3852 70.4831 74.5253 73.58C74.6553 76.4096 74.4219 79.4152 72.2141 81.4189C71.7338 81.8556 72.4575 82.5562 72.9344 82.1229C74.8788 80.3595 75.4791 77.8346 75.5458 75.2724C75.6425 71.6237 75.0322 67.9141 74.692 64.2891C74.095 57.9192 74.0217 50.1818 68.4788 45.9544C67.9718 45.5652 67.2748 46.2929 67.7884 46.6855Z" fill="#727272"/>
<path d="M35.7583 82.8542C38.5832 83.8865 41.4713 84.1437 44.4429 84.3976C47.7313 84.6785 51.0497 85.1016 54.3547 84.9831C57.7098 84.8647 61.0749 84.3806 64.41 84.0151C67.3282 83.6936 70.223 83.2874 72.9444 82.1095C73.5281 81.8557 73.2512 80.8775 72.6576 81.1348C69.8361 82.3566 66.8412 82.7357 63.8163 83.0606C60.668 83.3991 57.4997 83.856 54.3347 83.9677C51.2331 84.0794 48.1248 83.6969 45.0365 83.4363C41.9582 83.1723 38.9367 82.9422 36.0051 81.8726C35.3982 81.6458 35.158 82.6342 35.7583 82.8542Z" fill="#727272"/>
<path d="M37.626 48.1849C39.9539 49.1495 42.3318 50.0025 44.8431 50.3037C47.4545 50.6151 50.1158 50.1683 52.7439 50.236C54.2013 50.2732 55.512 50.4729 56.9828 50.2597C58.2501 50.0735 59.5174 49.8163 60.7481 49.4609C63.2994 48.723 65.7707 47.6941 68.2753 46.8073C68.879 46.5941 68.5988 45.6193 67.9885 45.8325C63.0859 47.5689 58.4902 49.5963 53.1975 49.2477C50.9963 49.1021 48.8052 49.4304 46.6107 49.4101C43.6558 49.3797 40.8143 48.4184 38.1062 47.2981C37.5226 47.0544 37.029 47.9378 37.626 48.1849Z" fill="#727272"/>
<path d="M7.66368 51.2413C13.2666 52.1348 18.4793 54.8257 22.3847 59.0193C26.1633 63.0775 28.2878 68.4252 32.4099 72.1924C32.8868 72.629 33.5839 71.8979 33.1036 71.4613C28.7347 67.4674 26.5502 61.6898 22.348 57.5368C18.4126 53.6478 13.3233 51.1194 7.91047 50.2564C7.27681 50.1548 7.02668 51.1398 7.66368 51.2413Z" fill="#727272"/>
<path d="M8.53747 49.4236C13.6235 48.2458 19.0296 48.9464 23.5987 51.5424C27.2439 53.6138 30.2355 56.8868 34.5877 57.3336C35.2281 57.3979 35.2014 56.3825 34.5677 56.3182C29.6852 55.8173 26.1633 51.3529 21.761 49.5184C17.4688 47.7313 12.763 47.4064 8.25399 48.4488C7.62366 48.5944 7.91047 49.5692 8.53747 49.4236Z" fill="#727272"/>
<path d="M7.72371 48.7433C7.34018 49.2781 7.09338 49.9042 7.00667 50.5575C6.96998 50.8316 7.08671 51.099 7.37019 51.1735C7.60698 51.2378 7.94049 51.0787 7.97717 50.8045C8.05388 50.2224 8.25732 49.7113 8.5975 49.2341C8.75758 49.0107 8.61751 48.6688 8.40406 48.5436C8.14726 48.3981 7.88046 48.5233 7.72371 48.7433Z" fill="#727272"/>
<path d="M71.8105 49.6708C73.8783 45.6532 80.4483 45.1354 84.1569 46.9766C88.1757 48.9736 90.03 53.8103 88.3825 58.0411C86.9484 61.727 83.2631 63.531 80.2316 65.6566C78.9542 66.5535 77.5335 67.5622 76.6497 68.8856C75.7259 70.2699 75.8459 72.0299 74.9321 73.4109C74.5719 73.9558 75.4491 74.4432 75.8059 73.905C76.3829 73.0352 76.5496 72.1078 76.8064 71.1127C77.17 69.7216 77.897 68.828 78.9409 67.9176C80.7385 66.3505 82.8463 65.2166 84.7606 63.812C88.149 61.3242 90.5269 57.7906 89.8966 53.3635C89.3196 49.3324 86.1246 45.9985 82.1792 45.264C78.2038 44.5227 72.9644 45.2369 70.9334 49.18C70.6366 49.7554 71.5103 50.2496 71.8105 49.6708Z" fill="#727272"/>
<path d="M72.8244 52.2263C74.2084 49.4238 77.3601 48.6995 80.2216 48.9229C82.1292 49.0718 83.3065 49.8334 84.3037 51.4953C85.4076 53.3297 85.3542 54.8833 84.7306 56.8396C83.7501 59.9062 81.9825 61.3277 79.2644 62.7662C77.4835 63.7071 74.7654 64.9392 74.055 67.0207C73.8449 67.6401 74.8154 67.8838 75.0255 67.2712C75.6725 65.3758 78.8475 64.1438 80.4817 63.2671C81.8991 62.509 83.2265 61.673 84.1836 60.336C85.6977 58.224 86.9417 54.775 85.8445 52.2737C84.5038 49.214 82.4527 47.8567 79.1777 47.8804C76.2628 47.9007 73.3246 48.9568 71.9539 51.7322C71.6638 52.3143 72.5376 52.8085 72.8244 52.2263Z" fill="#727272"/>
<path d="M54.308 59.5709C51.3665 60.0143 48.8819 62.2346 48.585 65.3383C48.3016 68.2965 50.2693 72.1483 53.611 71.9215C56.6593 71.715 59.3673 68.7162 59.6475 65.7174C59.9576 62.4174 57.5197 59.5404 54.208 59.6859C53.5643 59.713 53.5843 60.7284 54.228 60.7013C57.1328 60.5727 59.1339 63.2669 58.5903 66.1033C58.15 68.3981 55.9689 70.7132 53.591 70.9095C50.6695 71.1498 49.1787 67.3962 49.6423 64.9593C50.0858 62.6238 52.0569 60.9315 54.328 60.5896C54.955 60.4915 54.945 59.4727 54.308 59.5709Z" fill="#727272"/>
<path d="M54.8817 60.0143C54.7049 57.8616 58.0366 54.5886 59.7042 57.0798C60.2211 57.8515 60.7214 59.2223 60.5079 60.1733C60.2778 61.1921 59.294 61.9537 58.5402 62.5798C58.0433 62.9928 58.7704 63.6934 59.2606 63.2839C60.4479 62.2989 61.6685 61.1177 61.5552 59.4287C61.4618 58.0478 60.708 56.2268 59.5208 55.4687C56.9861 53.8474 53.6777 57.5604 53.8811 60.038C53.9345 60.6844 54.935 60.6675 54.8817 60.0143Z" fill="#727272"/>
<path d="M59.5274 63.5106C60.7814 62.7559 64.0264 62.9555 63.6896 65.1353C63.3694 67.2135 60.718 67.2981 59.1472 67.3184C58.5035 67.3252 58.5236 68.3406 59.1672 68.3338C61.3717 68.3067 65.2271 67.6027 64.6768 64.438C64.2432 61.9537 60.7881 61.5678 59.0038 62.6442C58.4502 62.9792 58.9705 63.8457 59.5274 63.5106Z" fill="#727272"/>
<path d="M58.5202 68.5198C60.2745 69.3051 62.2488 71.6371 60.5813 73.519C58.6303 75.719 55.8088 73.5427 55.0884 71.4205C54.8783 70.8045 53.9178 71.0888 54.1279 71.7116C55.0618 74.4532 58.4268 76.8224 61.0215 74.4972C63.5428 72.2396 61.5385 68.7669 59.0071 67.6297C58.4235 67.3691 57.9333 68.2558 58.5202 68.5198Z" fill="#727272"/>
<path d="M53.6477 71.6746C53.7377 73.3805 53.2675 75.919 51.0063 75.6143C49.9791 75.4756 49.1887 74.538 49.2354 73.4752C49.2754 72.5208 49.9391 71.4072 50.3026 70.534C50.5494 69.9383 49.6789 69.4373 49.4288 70.0398C48.8985 71.3192 47.9781 72.8118 48.3182 74.2571C48.595 75.4282 49.5055 76.359 50.6728 76.5925C53.651 77.1916 54.7749 74.0743 54.6482 71.6509C54.6149 71.001 53.6143 71.018 53.6477 71.6746Z" fill="#727272"/>
<path d="M50.1659 69.2715C48.3016 70.0534 45.4234 69.8537 44.773 67.481C44.4896 66.4385 44.8064 65.2065 45.7702 64.6413C46.7074 64.093 47.918 64.2385 48.9386 64.3637C49.5689 64.4416 49.8224 63.4567 49.1854 63.3788C47.7713 63.2062 46.1671 63.0539 44.9498 63.9745C43.9393 64.7394 43.5291 66.0798 43.7225 67.3152C44.2228 70.5069 47.9013 71.3091 50.4493 70.2429C51.043 69.9992 50.7628 69.021 50.1659 69.2715Z" fill="#727272"/>
<path d="M49.5455 63.4936C47.8613 62.5798 46.9809 59.2222 48.4583 57.7702C50.3993 55.8646 52.7839 58.5656 53.9578 60.0277C54.3647 60.5321 55.0517 59.7976 54.6515 59.2966C53.1174 57.3877 49.799 54.4667 47.5312 57.2185C45.8636 59.2459 46.8608 63.189 49.0586 64.3838C49.6256 64.6918 50.1158 63.805 49.5455 63.4936Z" fill="#727272"/>
<path d="M51.153 70.9569C50.3626 71.7286 49.849 73.8169 51.063 74.4499C52.5171 75.2114 53.1608 72.6221 53.3542 71.688C53.4409 71.2615 52.7939 71.0956 52.7072 71.5221C52.6205 71.9452 52.5104 72.3615 52.357 72.7677C52.2803 72.9674 52.1969 73.1671 52.0969 73.3566C51.9435 73.6511 51.8534 73.8406 51.4999 73.8C50.5461 73.6815 51.1997 71.8504 51.6366 71.4273C51.9435 71.1227 51.4632 70.6556 51.153 70.9569Z" fill="#727272"/>
<path d="M55.452 71.0043C55.2819 71.9791 56.3691 72.744 57.1462 73.0926C57.9333 73.4446 59.0305 73.5631 59.7675 73.0114C60.4712 72.4834 60.3612 71.5255 60.0577 70.7944C59.6441 69.7993 58.7937 69.1292 57.8099 68.7772C57.403 68.6316 57.2429 69.2916 57.6464 69.4338C58.2401 69.647 58.7737 70.0058 59.1506 70.527C59.2806 70.7098 59.3807 70.9027 59.4641 71.1126C59.6575 71.6068 59.6875 71.8301 59.344 72.26C59.0505 72.6255 58.8971 72.7102 58.4502 72.7135C58.17 72.7135 57.8799 72.656 57.6164 72.5612C57.2129 72.4157 55.9956 71.7726 56.099 71.1769C56.1723 70.7437 55.5287 70.5744 55.452 71.0043Z" fill="#727272"/>
<path d="M59.3207 66.6246C60.1578 66.8378 60.9915 66.4723 61.6952 66.0221C62.2088 65.6938 62.8858 65.0947 62.8258 64.4009C62.7758 63.8221 62.2088 63.5479 61.7019 63.487C60.8281 63.3787 59.971 63.7612 59.2606 64.2418C58.9038 64.4821 59.2506 65.0643 59.6075 64.8206C59.9777 64.5667 60.3712 64.3433 60.8081 64.2316C61.2116 64.1267 62.3856 63.9575 62.0287 64.807C61.7152 65.5618 60.1944 66.1474 59.4841 65.968C59.0672 65.863 58.9038 66.5197 59.3207 66.6246Z" fill="#727272"/>
<path d="M56.209 60.3056C56.1557 59.7912 56.2624 59.2801 56.6292 58.901C56.896 58.6201 57.5431 58.2478 57.9233 58.4644C58.2601 58.6573 58.2368 59.4696 58.2368 59.8453C58.2334 60.3835 58.12 60.8946 57.9433 61.3989C57.7999 61.8084 58.4469 61.9709 58.5903 61.5647C58.8771 60.7456 58.9771 59.8859 58.8404 59.0228C58.747 58.4305 58.647 57.8416 57.99 57.7536C56.5359 57.5539 55.4053 58.9247 55.5487 60.3226C55.5854 60.749 56.2524 60.7389 56.209 60.3056Z" fill="#727272"/>
<path d="M50.0158 62.5697C49.4989 61.9097 49.0553 60.7116 49.2287 59.862C49.3321 59.3475 49.4522 59.1986 49.9791 59.1445C50.506 59.0903 50.6361 59.2494 51.0163 59.5608C51.4032 59.8755 51.78 60.2005 52.1636 60.5186C52.4937 60.7928 52.9573 60.3088 52.6238 60.0312C51.6833 59.246 50.1725 57.4352 48.9752 58.8128C48.0481 59.8823 48.6718 61.9402 49.4455 62.9251C49.709 63.2602 50.2826 62.9116 50.0158 62.5697Z" fill="#727272"/>
<path d="M48.8185 65.2065C47.5178 64.6785 45.8203 65.8529 46.0204 67.3354C46.2071 68.7401 48.4383 69.2613 49.4422 68.4693C49.7757 68.2053 49.4322 67.6231 49.0953 67.8905C48.5484 68.3237 47.1876 68.2087 46.7874 67.5622C46.2005 66.6246 47.6312 65.4434 48.4983 65.7988C48.8885 65.9579 49.2154 65.3689 48.8185 65.2065Z" fill="#727272"/>
</g>
<defs>
<clipPath id="clip0_82645_304">
<rect width="44" height="49" fill="white" transform="translate(31)"/>
</clipPath>
<clipPath id="clip1_82645_304">
<rect width="83" height="40" fill="white" transform="translate(7 45)"/>
</clipPath>
</defs>
</svg>
