<svg width="77" height="95" viewBox="0 0 77 95" fill="none" xmlns="http://www.w3.org/2000/svg">
<circle cx="37" cy="58" r="37" fill="#46A358" fill-opacity="0.13"/>
<g clip-path="url(#clip0_82645_302)">
<path d="M28.1293 46.3569C40.7023 48.0205 53.3918 48.282 66.0231 47.1369C66.8795 47.0602 66.8885 45.7077 66.0231 45.7844C53.3918 46.9295 40.7023 46.668 28.1293 45.0044C27.2773 44.8917 27.2818 46.2487 28.1293 46.3569Z" fill="#727272"/>
<path d="M31.0304 92.0307C36.465 92.725 41.9354 93.0631 47.4147 92.9865C52.235 92.9189 57.9251 93.1308 62.4449 91.2237C63.2296 90.8901 62.8843 89.5827 62.0862 89.9208C57.4498 91.8775 51.5086 91.6115 46.5493 91.643C41.3569 91.6791 36.178 91.3365 31.0259 90.6782C30.174 90.57 30.1785 91.9225 31.0304 92.0307Z" fill="#727272"/>
<path d="M27.6047 45.3155C21.3316 51.1673 18.4081 59.8909 19.0986 68.3981C19.4529 72.7937 20.6904 77.0675 22.5513 81.0529C24.2462 84.6866 26.7438 89.8937 30.4923 91.7827C31.2636 92.1704 31.9451 91.0072 31.1694 90.615C27.6809 88.8568 25.3089 83.7939 23.7126 80.3721C21.8563 76.3823 20.6411 72.0498 20.39 67.6452C19.9416 59.706 22.7127 51.7218 28.5597 46.2713C29.1965 45.6807 28.2414 44.7249 27.6047 45.3155Z" fill="#727272"/>
<path d="M65.5478 46.9522C72.1661 51.1223 72.7893 60.1164 72.6279 67.199C72.4486 75.0975 71.4755 87.6126 62.0862 89.9209C61.2477 90.1283 61.6019 91.4312 62.4449 91.2238C72.2468 88.8163 73.6547 76.3959 73.9507 68.0375C74.2242 60.2156 73.5337 50.3875 66.2248 45.7845C65.4895 45.3247 64.8169 46.4923 65.5478 46.9522Z" fill="#727272"/>
<path d="M32.5774 46.366C27.6406 51.7084 25.4614 60.6303 26.2954 67.785C26.7797 71.9462 28.089 76.0758 29.062 80.1378C30.0395 84.2088 31.0484 88.2483 33.2634 91.8414C33.7208 92.5807 34.8821 91.9 34.4248 91.1606C32.3442 87.7884 31.3757 84.0195 30.4565 80.2009C29.5687 76.5221 28.5329 72.8388 27.8468 69.1195C26.5465 62.0369 28.5822 52.6777 33.528 47.3218C34.1154 46.6816 33.1648 45.7259 32.5774 46.366Z" fill="#727272"/>
<path d="M39.2405 46.9295C35.5637 53.4395 33.6311 60.8331 33.7297 68.3259C33.7791 71.9235 34.2902 75.5257 35.2677 78.9881C36.4829 83.2845 38.3303 87.36 39.1374 91.7736C39.2943 92.6302 40.5902 92.265 40.4332 91.413C39.7292 87.5493 38.2361 83.9517 37.0478 80.2278C35.8955 76.6122 35.2049 72.8838 35.0884 69.0833C34.8552 61.5679 36.7116 54.1427 40.4018 47.6102C40.8323 46.8528 39.6709 46.1721 39.2405 46.9295Z" fill="#727272"/>
<path d="M43.2043 48.2234C44.4822 55.7343 42.9308 63.2586 43.0608 70.8011C43.1191 74.2454 43.8858 77.4508 44.3342 80.8411C44.8006 84.3621 44.0024 87.9822 43.5675 91.4762C43.4599 92.3373 44.8051 92.3282 44.9127 91.4762C45.3521 87.9507 46.1458 84.3034 45.6794 80.7509C45.2041 77.1172 44.4015 73.6728 44.397 69.976C44.388 62.5779 45.7512 55.2339 44.5001 47.8673C44.3522 47.0107 43.0563 47.3714 43.2043 48.2234Z" fill="#727272"/>
<path d="M48.2487 47.5968C50.6118 54.3818 50.8987 61.541 51.1364 68.6596C51.3965 76.3914 51.0108 84.0014 49.576 91.6114C49.4146 92.4635 50.7104 92.8287 50.8718 91.9721C52.3291 84.2448 52.7461 76.5086 52.4816 68.6596C52.2394 61.4238 51.9435 54.1293 49.5446 47.2361C49.2621 46.4246 47.9618 46.7762 48.2487 47.5968Z" fill="#727272"/>
<path d="M53.9075 47.6284C54.4052 49.1567 55.4813 50.1756 56.3064 51.519C57.248 53.0519 57.7637 54.7876 58.0417 56.5548C58.647 60.4139 58.36 64.4534 58.3511 68.3441C58.3421 72.5774 58.6649 77.0541 57.5753 81.1882C56.6158 84.8174 54.4142 87.9462 53.6788 91.652C53.5084 92.5041 54.8043 92.8648 54.9747 92.0127C55.7638 88.0454 58.2031 84.6867 59.064 80.7374C59.9473 76.698 59.6873 72.4511 59.6962 68.3441C59.7052 64.5481 59.9339 60.6664 59.4362 56.8929C59.2165 55.2249 58.8398 53.5748 58.1224 52.051C57.3242 50.3514 55.7862 49.0575 55.2078 47.2722C54.9343 46.4472 53.634 46.7988 53.9075 47.6284Z" fill="#727272"/>
<path d="M60.4495 47.4163C63.1219 49.941 64.4088 53.9714 65.3729 57.4518C66.3773 61.0765 66.041 64.9447 65.8168 68.655C65.3639 76.1839 64.0994 83.7038 60.5078 90.4121C60.0953 91.1785 61.2566 91.8638 61.6692 91.0929C65.4984 83.9382 66.7764 75.8954 67.2023 67.8706C67.4176 63.8311 67.5924 59.8863 66.3324 55.9957C65.2384 52.6189 64.0322 48.9492 61.4001 46.4561C60.7724 45.8655 59.8173 46.8212 60.4495 47.4163Z" fill="#727272"/>
<path d="M32.4697 50.7977C32.3307 51.1538 32.1783 51.5055 32.0124 51.8526C31.8016 52.2899 32.0482 52.8895 32.5953 52.8715C32.9854 52.858 33.2948 52.6822 33.5728 52.4162C33.6625 52.3305 33.7521 52.2403 33.8373 52.1547C33.9494 52.042 33.8015 52.2223 33.8867 52.1186C33.8687 52.1457 33.7746 52.1367 33.8598 52.1457C33.6445 51.8616 33.4293 51.5731 33.2096 51.2891C33.1513 51.5911 33.0885 51.8932 33.0302 52.1998C32.9585 52.5559 33.1334 52.9301 33.501 53.0338C33.8329 53.124 34.2588 52.9211 34.3306 52.5604C34.3889 52.2584 34.4516 51.9563 34.5099 51.6498C34.5996 51.1899 34.3171 50.8383 33.8598 50.7932C33.4876 50.7571 33.1513 50.9555 32.8867 51.1989C32.7926 51.2846 32.7119 51.3747 32.6177 51.4604C32.5863 51.4875 32.5594 51.5145 32.528 51.5416C32.5415 51.528 32.5549 51.519 32.5684 51.5055C32.5011 51.5416 32.5011 51.5461 32.5774 51.5145C32.5011 51.5325 32.5056 51.537 32.5908 51.5145C32.7836 51.8526 32.9764 52.1908 33.1737 52.5334C33.3889 52.0826 33.5862 51.6227 33.7656 51.1583C33.8956 50.8157 33.6221 50.4145 33.2948 50.3243C32.9181 50.2206 32.6043 50.4551 32.4697 50.7977Z" fill="#727272"/>
<path d="M29.1382 58.8902C29.0754 59.2689 29.0127 59.6476 28.9499 60.0217C28.9006 60.3238 28.9813 60.6213 29.2593 60.7836C29.5059 60.9279 29.8781 60.9009 30.0754 60.68C30.2054 60.5312 30.3354 60.3824 30.4655 60.2336C30.5506 60.1345 30.6717 59.9496 30.7748 59.8955C30.6627 59.9271 30.5506 59.9586 30.4341 59.9857C30.4565 59.9812 30.4834 59.9812 30.5058 59.9767C30.3937 59.9451 30.2816 59.9135 30.165 59.8865C30.183 59.9 30.2009 59.9135 30.2188 59.9271C30.1067 59.7332 29.9946 59.5394 29.887 59.341C29.9229 59.7287 29.8153 60.1615 29.7704 60.5537C29.7077 61.1173 30.3758 61.3246 30.7838 61.1398C31.3129 60.8918 31.6672 60.4365 31.8555 59.891C31.4788 59.9902 31.1067 60.0894 30.73 60.1886C30.7166 60.1029 30.7031 60.0172 30.6897 59.9316C30.4699 60.7746 31.7703 61.1353 31.9855 60.2922C32.0842 59.909 31.9945 59.4898 31.6806 59.2328C31.277 58.9037 30.7345 59.0209 30.5551 59.5303C30.4744 59.7558 30.3085 59.873 30.1023 59.9722C30.4386 60.166 30.7748 60.3599 31.1156 60.5582C31.1829 59.9541 31.5057 58.8811 30.6807 58.6512C29.9857 58.4574 29.4969 59.2869 29.1203 59.7242C29.4969 59.9451 29.8691 60.1615 30.2457 60.3824C30.3085 60.0037 30.3713 59.625 30.4341 59.2508C30.4924 58.8902 30.3399 58.5205 29.9633 58.4168C29.6449 58.3311 29.1965 58.5295 29.1382 58.8902Z" fill="#727272"/>
<path d="M28.5597 67.0367C28.6046 67.5687 28.6539 68.1007 28.6987 68.6281C28.766 69.381 29.7749 69.5568 30.0215 68.8085C30.156 68.3937 30.3443 68.0195 30.582 67.6498C30.174 67.5957 29.7614 67.5416 29.3534 67.4875C29.5103 67.8798 29.6179 68.281 29.6762 68.7048C29.7435 69.1827 30.3219 69.2638 30.6627 69.1105C30.8331 69.0339 30.9721 68.8851 31.0618 68.7228C31.1021 68.6507 31.1335 68.565 31.1604 68.4884C31.1739 68.4478 31.1828 68.4072 31.1963 68.3666C31.2187 68.299 31.2097 68.3035 31.1784 68.3802C31.0797 68.4388 30.9811 68.4974 30.8824 68.556C30.9048 68.547 30.9317 68.5425 30.9542 68.5335C30.8331 68.5335 30.7165 68.5335 30.5954 68.5335C30.5865 68.5289 30.5775 68.5244 30.573 68.5154C30.4923 68.4343 30.4116 68.3531 30.3309 68.272C30.3443 68.29 30.3533 68.308 30.3668 68.3261C30.3443 68.1503 30.3219 67.9789 30.2995 67.8031C30.295 67.8257 30.295 67.8482 30.2905 67.8662C30.2412 68.2269 30.3757 68.5921 30.7614 68.7003C31.0752 68.7859 31.5416 68.5921 31.5909 68.2269C31.6312 67.9339 31.6088 67.6679 31.3936 67.447C31.2142 67.2666 30.9407 67.181 30.6896 67.208C30.4295 67.2396 30.2009 67.3929 30.0619 67.6138C30.0036 67.7084 29.9229 67.8392 29.9184 67.9474C29.9139 68.1052 29.8466 67.9925 29.9901 67.9293C30.3174 68.0646 30.6493 68.1998 30.9766 68.3351C30.9183 67.9158 30.8107 67.5146 30.6537 67.1178C30.4385 66.5859 29.757 66.4326 29.4251 66.9555C29.1292 67.4199 28.9005 67.9158 28.7301 68.4343C29.1696 68.4929 29.609 68.556 30.0529 68.6146C30.0081 68.0826 29.9587 67.5506 29.9139 67.0232C29.8825 66.658 29.6269 66.3469 29.2413 66.3469C28.896 66.3604 28.5284 66.6715 28.5597 67.0367Z" fill="#727272"/>
<path d="M30.1784 76.5762C30.2233 77.3561 30.6134 78.0369 31.2905 78.4336C31.7389 78.6906 32.2949 78.3615 32.3038 77.8475C32.3083 77.4508 32.398 77.0856 32.5505 76.7204C32.1738 76.8196 31.8016 76.9188 31.425 77.018C31.6088 77.2434 31.8061 77.4418 32.0258 77.6266C32.3845 77.9287 33.0392 77.8701 33.1513 77.3291C33.1782 77.2073 33.2096 77.1036 33.2499 76.9909C32.8733 77.0901 32.5011 77.1893 32.1245 77.2885C32.1648 77.2659 32.1873 77.293 32.1828 77.3651C32.3263 77.7033 32.8195 77.7754 33.102 77.6086C33.4472 77.4057 33.4876 77.0225 33.3441 76.6844C33.2858 76.5491 33.1917 76.4274 33.0751 76.3327C32.6581 76.0036 32.1469 76.1253 31.9496 76.6303C31.9048 76.743 31.8734 76.8512 31.851 76.9684C32.2276 76.8692 32.5998 76.77 32.9764 76.6708C32.7567 76.486 32.5594 76.2831 32.3756 76.0622C32.0169 75.6204 31.425 75.9495 31.2501 76.3598C31.0528 76.8331 30.9631 77.3336 30.9542 77.8475C31.2905 77.6537 31.6268 77.4598 31.9675 77.2614C31.7075 77.1127 31.5371 76.8782 31.5191 76.5717C31.4743 75.7151 30.1291 75.7061 30.1784 76.5762Z" fill="#727272"/>
<path d="M32.9496 85.8498C33.1065 86.2555 33.2948 86.6297 33.5504 86.9859C33.9495 87.5359 34.7431 87.333 34.8059 86.6433C34.8104 86.6027 34.8821 86.1023 34.8552 86.0797C34.6624 86.2014 34.4741 86.3232 34.2813 86.4449C34.3261 86.508 34.3665 86.5666 34.4158 86.6252C34.5862 86.8416 34.7969 87.0265 35.0705 87.1031C35.2812 87.1572 35.5278 87.1302 35.7117 87.0129C35.8327 86.9318 35.9179 86.8371 35.9807 86.7064C36.0031 86.6523 36.0255 86.5982 36.048 86.5441C36.1511 86.2195 35.9538 86.1654 35.4606 86.3818C35.7296 87.2023 37.0299 86.8506 36.7564 86.0211C36.5681 85.4531 36.0211 85.0834 35.4247 85.3088C35.1826 85.4035 34.9718 85.5838 34.8552 85.8182C34.8194 85.8904 34.6893 86.2014 34.7342 86.2916C34.9942 86.1428 35.2498 85.9896 35.5099 85.8408C35.474 85.7957 35.4381 85.7551 35.4068 85.71C35.1915 85.2727 34.5683 85.0248 34.1199 85.1871C33.4876 85.4125 33.5145 86.0887 33.4652 86.6478C33.8822 86.5351 34.2992 86.4224 34.7207 86.3051C34.5369 86.0527 34.371 85.7867 34.2544 85.4936C33.9315 84.6912 32.6312 85.0383 32.9496 85.8498Z" fill="#727272"/>
<path d="M40.1373 50.9824C39.6531 51.3476 39.2495 51.7804 38.985 52.3349C38.6397 53.0563 39.4423 53.6243 40.0432 53.1555C40.1867 53.0427 40.3301 52.93 40.4736 52.8173C40.5364 52.7677 40.5992 52.7181 40.6664 52.6686C40.6978 52.6415 40.7292 52.619 40.7606 52.5919C40.8727 52.5108 40.8144 52.5243 40.5857 52.628C40.4736 52.5964 40.3615 52.5649 40.2449 52.5378C40.2584 52.5468 40.2718 52.5558 40.2853 52.5649C40.2046 52.4837 40.1239 52.4026 40.0432 52.3214C40.0297 52.2628 40.0118 52.2087 39.9983 52.1501C40.0028 52.087 40.0028 52.078 39.9894 52.1321C39.958 52.1546 39.949 52.3079 39.949 52.3304C39.9176 52.5378 39.9356 52.7407 40.0432 52.93C40.1418 53.1014 40.3167 53.2546 40.5095 53.3042C40.5902 53.3268 40.6933 53.3358 40.7785 53.3358C40.8592 53.3358 40.931 53.3223 41.0027 53.2952C41.0969 53.2682 41.0655 53.2591 40.9041 53.2682C40.8054 53.2096 40.7068 53.1509 40.6081 53.0923C40.6216 53.1059 40.635 53.1194 40.6485 53.1329C40.5902 53.0337 40.5319 52.9345 40.4736 52.8354C40.4781 52.8489 40.4826 52.8669 40.4871 52.8804C40.5095 52.7046 40.5319 52.5333 40.5543 52.3575C40.5454 52.371 40.5409 52.3845 40.5319 52.3981C40.1239 53.1645 41.2852 53.8497 41.6933 53.0788C41.8681 52.7542 41.8278 52.389 41.5543 52.1321C41.4108 51.9968 41.218 51.9157 41.0207 51.9112C40.9086 51.9066 40.7785 51.9788 40.6799 51.9698C40.792 52.0013 40.9041 52.0329 41.0207 52.0599C41.0027 52.0464 40.9848 52.0329 40.9713 52.0239C41.0521 52.105 41.1328 52.1862 41.2135 52.2673C41.2045 52.2493 41.1955 52.2312 41.1866 52.2132C41.218 52.3259 41.2493 52.4386 41.2762 52.5558C41.2673 52.4702 41.2807 52.5153 41.3121 52.389C41.348 52.2312 41.3525 52.0599 41.3166 51.8976C41.2404 51.573 40.9982 51.3386 40.6754 51.28C40.3391 51.2169 40.1104 51.3927 39.8548 51.5911C39.5993 51.7894 39.3437 51.9923 39.0881 52.1907C39.4423 52.4657 39.7921 52.7362 40.1463 53.0112C40.3077 52.6776 40.514 52.371 40.8144 52.1456C41.1059 51.9292 41.2538 51.5595 41.0565 51.2214C40.8906 50.9374 40.4333 50.766 40.1373 50.9824Z" fill="#727272"/>
<path d="M37.5052 58.5925C37.3931 59.1335 37.2855 59.6745 37.1734 60.22C37.0344 60.9097 37.7788 61.3065 38.2989 60.8782C38.4513 60.7519 38.5859 60.5941 38.6845 60.4228C38.7518 60.3056 38.8325 60.0667 38.8684 60.0081C38.7876 60.0892 38.7069 60.1704 38.6262 60.2515C38.6486 60.238 38.6666 60.2245 38.689 60.2064C38.5769 60.238 38.4648 60.2696 38.3482 60.2966C38.3751 60.2921 38.402 60.2921 38.4289 60.2876C38.3168 60.256 38.2047 60.2245 38.0881 60.1974C37.9805 60.1478 37.976 59.972 38.0074 60.2019C38.0164 60.2605 38.0299 60.3101 38.0478 60.3642C38.1106 60.5671 38.2227 60.7474 38.3931 60.8737C38.55 60.9909 38.7338 61.054 38.9311 61.0495C39.0522 61.045 39.1643 61.0134 39.2719 60.9593C39.3302 60.9368 39.3795 60.9052 39.4244 60.8646C39.5409 60.7835 39.5096 60.788 39.3347 60.8692C39.2226 60.8376 39.1105 60.806 38.9939 60.779C39.0118 60.788 39.0163 60.797 39.0298 60.8331C39.3167 61.6491 40.6171 61.2974 40.3256 60.4724C40.2001 60.1163 40.0162 59.7872 39.671 59.6113C39.4916 59.5167 39.2674 59.4896 39.0701 59.5347C38.8728 59.5798 38.7563 59.7105 38.5859 59.7917C38.698 59.7601 38.8101 59.7286 38.9266 59.7015C38.9042 59.7015 38.8773 59.7015 38.8549 59.7015C38.967 59.7331 39.0791 59.7646 39.1957 59.7917C39.3167 60.0036 39.3526 60.0351 39.3033 59.8863C39.2943 59.8277 39.2854 59.7691 39.2764 59.7105C39.245 59.5933 39.1957 59.4716 39.1329 59.3724C38.967 59.1109 38.6935 58.9396 38.3841 58.9441C38.0792 58.9486 37.8012 59.1244 37.6577 59.3904C37.5366 59.6158 37.5456 59.7511 37.3393 59.9224C37.716 60.1433 38.0881 60.3597 38.4648 60.5806C38.5769 60.0396 38.6845 59.4986 38.7966 58.9576C38.976 58.1011 37.6801 57.7404 37.5052 58.5925Z" fill="#727272"/>
<path d="M36.9851 65.5039C36.8461 66.2298 36.7564 66.9601 36.734 67.695C36.716 68.2089 37.3169 68.5335 37.7473 68.281C37.9446 68.1638 38.0881 68.006 38.1957 67.8032C38.2361 67.7265 38.3527 67.5507 38.3303 67.4831C38.3258 67.4741 38.2854 67.5327 38.3034 67.5236C38.1913 67.5552 38.0792 67.5868 37.9626 67.6138C37.9536 67.6183 37.9402 67.6183 37.9312 67.6228C37.8505 67.5417 37.7698 67.4605 37.6891 67.3794C37.7653 67.4786 37.7563 67.4695 37.7653 67.5732C37.8146 68.1278 38.4782 68.4974 38.9132 68.0511C38.9625 67.997 39.0118 67.9474 39.0656 67.8978C38.9715 67.9429 38.8728 67.9339 38.7787 67.8798C38.7204 67.7806 38.6621 67.6814 38.6038 67.5823C38.6127 67.6093 38.6217 67.6364 38.6352 67.6634C38.7607 68.006 39.0925 68.2405 39.4647 68.1368C39.792 68.0466 40.0611 67.6499 39.9355 67.3027C39.5858 66.347 38.5679 66.4687 37.9626 67.0954C38.3437 67.2531 38.7293 67.4154 39.1105 67.5732C39.0567 66.9195 38.7338 66.2117 37.9626 66.2613C37.6487 66.2793 37.3707 66.4642 37.2048 66.7302C37.1465 66.8249 37.1061 66.9331 37.0613 67.0367C37.012 67.1495 36.9268 67.19 37.0658 67.1089C37.4021 67.3027 37.7384 67.4966 38.0792 67.695C38.0971 67.0773 38.1644 66.4687 38.2809 65.8601C38.4468 65.0125 37.151 64.6518 36.9851 65.5039Z" fill="#727272"/>
<path d="M37.6532 73.2265C37.8056 73.8306 37.9895 74.4212 38.2047 75.0028C38.3796 75.4761 38.9401 75.6745 39.3302 75.3003C39.5006 75.1335 39.6171 74.9396 39.6754 74.7052C39.6979 74.6105 39.7158 74.4978 39.7203 74.4031C39.7337 74.1146 39.7023 74.3536 39.7292 74.34C39.6171 74.3716 39.505 74.4031 39.3885 74.4302C39.4198 74.4302 39.4468 74.4257 39.4781 74.4257C39.366 74.3941 39.2539 74.3626 39.1374 74.3355C39.0477 74.2949 39.0746 74.2544 39.1463 74.3806C39.1822 74.4437 39.2136 74.4978 39.2584 74.5564C39.3974 74.7368 39.5678 74.8585 39.7965 74.89C39.9983 74.9171 40.1911 74.8675 40.3615 74.7503C40.4556 74.6827 40.5408 74.606 40.6036 74.5068C40.6305 74.4527 40.6574 74.3986 40.6798 74.3445C40.7695 74.1687 40.6933 74.2138 40.4512 74.4843C40.3301 74.4843 40.2135 74.4843 40.0924 74.4843C40.0386 74.4392 39.9893 74.3896 39.9355 74.3445C39.9041 74.2318 39.8727 74.1191 39.8458 74.0019C39.8458 74.029 39.8458 74.056 39.8458 74.0831C39.8324 74.9532 41.1776 74.9532 41.191 74.0831C41.2 73.6277 40.8861 73.2716 40.4512 73.1814C40.218 73.1318 39.9848 73.1814 39.792 73.3211C39.6979 73.3888 39.6216 73.4654 39.5589 73.5601C39.5454 73.5871 39.5319 73.6187 39.514 73.6457C39.3974 73.8712 39.4288 73.8667 39.6127 73.6322C39.7248 73.6007 39.8369 73.5691 39.9534 73.5421C39.931 73.5466 39.9086 73.5466 39.8862 73.5511C39.9983 73.5826 40.1104 73.6142 40.227 73.6412C40.4198 73.7359 40.3211 73.7044 40.2494 73.5781C40.1956 73.4789 40.1238 73.3843 40.0431 73.3121C39.7875 73.0822 39.4512 73.0236 39.1329 73.1363C38.8773 73.2265 38.6845 73.4248 38.5544 73.6548C38.4827 73.7855 38.4468 73.9162 38.4199 74.0605C38.4065 74.1236 38.4199 74.304 38.3796 74.3445C38.7562 74.4437 39.1284 74.5429 39.505 74.6421C39.2898 74.0605 39.106 73.4654 38.9535 72.8658C38.7338 72.0273 37.4379 72.3834 37.6532 73.2265Z" fill="#727272"/>
<path d="M38.3302 79.6869C38.5724 80.4037 38.8818 81.0935 39.2629 81.7427C39.5364 82.207 40.1418 82.1529 40.4242 81.7427C40.5005 81.63 40.5543 81.5128 40.5901 81.382C40.5946 81.3414 40.5991 81.3054 40.6081 81.2648C40.6798 81.0033 40.617 81.0123 40.4108 81.2964C40.2897 81.2964 40.1731 81.2964 40.0521 81.2964C39.8637 81.2378 39.9489 81.2513 40.0476 81.3595C40.1193 81.4361 40.209 81.5173 40.3032 81.5714C40.496 81.6796 40.7247 81.7202 40.9444 81.7021C41.4466 81.6661 41.7918 81.3324 41.9577 80.8771C42.2582 80.0611 40.9578 79.7049 40.6619 80.5164C40.7471 80.291 40.9578 80.4172 40.922 80.309C40.8951 80.2324 40.7381 80.1287 40.6664 80.0881C40.4467 79.9619 40.1821 79.9349 39.9445 80.016C39.7247 80.0881 39.5499 80.2549 39.4378 80.4578C39.3391 80.6382 39.366 80.9086 39.2584 81.0619C39.644 81.0619 40.0341 81.0619 40.4198 81.0619C40.0924 80.5074 39.8279 79.9394 39.6216 79.3307C39.3526 78.5102 38.0522 78.8619 38.3302 79.6869Z" fill="#727272"/>
<path d="M40.1014 87.4008C40.1059 87.775 40.1597 88.1492 40.2763 88.5008C40.3615 88.7578 40.5633 88.9471 40.8368 88.9832C41.0834 89.0148 41.3928 88.9021 41.5049 88.6586C41.5811 88.4963 41.6574 88.334 41.7336 88.1762C41.7695 88.0996 41.8053 88.0274 41.8367 87.9508C41.8546 87.9147 41.8726 87.8742 41.8905 87.8381C41.9264 87.7705 41.9264 87.7705 41.8905 87.8381C41.7919 87.8967 41.6932 87.9553 41.5946 88.0139C41.608 88.0094 41.626 88.0004 41.6394 87.9959C41.5184 87.9959 41.4018 87.9959 41.2807 87.9959C41.2583 87.9869 41.2314 87.9733 41.209 87.9643C41.1282 87.8832 41.0475 87.802 40.9668 87.7209C40.8996 87.6082 40.9623 87.7028 40.9892 87.7795C41.0117 87.8516 41.0386 87.9192 41.061 87.9914C41.1103 88.1311 41.1596 88.2754 41.2045 88.4152C41.3211 88.7623 41.6663 88.9877 42.034 88.8885C42.3658 88.7984 42.6214 88.4016 42.5048 88.0545C42.312 87.4955 42.1506 86.5758 41.3704 86.6795C40.765 86.7606 40.5633 87.5 40.3391 87.9779C40.7471 88.032 41.1596 88.0861 41.5677 88.1402C41.4825 87.8742 41.4421 87.6578 41.4376 87.3963C41.4332 87.0446 41.1327 86.702 40.7651 86.72C40.4108 86.7381 40.0969 87.0221 40.1014 87.4008Z" fill="#727272"/>
<path d="M46.2803 88.2211C46.2444 88.5277 46.2085 88.8388 46.1727 89.1453C46.1368 89.4339 46.4058 89.7269 46.6659 89.799C46.9708 89.8847 47.2533 89.7359 47.4237 89.488C47.5448 89.3121 47.6658 89.1408 47.7869 88.965C47.8407 88.8838 47.899 88.8072 47.9528 88.7261C47.9752 88.6945 47.9976 88.6629 48.02 88.6314C48.1187 88.4961 48.1052 88.5051 47.9842 88.6584C47.8721 88.69 47.76 88.7215 47.6434 88.7486C47.6658 88.7486 47.6838 88.7486 47.7062 88.7486C47.5941 88.717 47.482 88.6855 47.3654 88.6584C47.2309 88.424 47.186 88.3789 47.2309 88.5232C47.2443 88.5773 47.2533 88.6359 47.2667 88.69C47.2892 88.8027 47.3116 88.9109 47.3385 89.0236C47.3878 89.258 47.4102 89.533 47.5313 89.7449C47.6479 89.9433 47.8407 90.1146 48.0649 90.1777C48.4102 90.2724 48.6926 90.0966 48.8944 89.8261C49.1141 89.533 48.9393 89.0687 48.6523 88.9019C48.307 88.699 47.9528 88.8523 47.7331 89.1453C47.7241 89.1589 47.7151 89.1724 47.7062 89.1814C47.899 89.0687 48.0918 88.956 48.2891 88.8478C48.2756 88.8478 48.2622 88.8523 48.2487 88.8523C48.3608 88.8838 48.4729 88.9154 48.5895 88.9425C48.7061 89.0011 48.7778 89.3302 48.7106 88.9966C48.6926 88.9019 48.6702 88.8117 48.6523 88.717C48.6164 88.5502 48.585 88.3834 48.5492 88.2166C48.4684 87.865 48.2577 87.5223 47.89 87.4186C47.482 87.3059 47.1591 87.5404 46.9305 87.8469C46.7018 88.158 46.4865 88.4781 46.2668 88.7937C46.6838 88.9064 47.1008 89.0191 47.5223 89.1363C47.5582 88.8297 47.5941 88.5187 47.6299 88.2121C47.6703 87.8469 47.2892 87.5359 46.9574 87.5359C46.5583 87.5449 46.3251 87.8605 46.2803 88.2211Z" fill="#727272"/>
<path d="M46.926 75.8729C46.76 76.5942 46.6793 77.3336 46.6928 78.073C46.7018 78.7086 47.6344 79.0377 47.9483 78.4156C48.0828 78.1451 48.2173 77.8791 48.3518 77.6086C48.4505 77.4102 48.5222 77.1623 48.7016 77.0225C48.6029 77.0811 48.5043 77.1397 48.4057 77.1984C48.4057 77.1938 48.4057 77.1893 48.4101 77.1848C48.1949 77.018 47.9797 76.8557 47.76 76.6889C47.8452 77.009 47.9304 77.3291 48.0156 77.6492C48.1232 78.0504 48.6388 78.2939 49.002 78.0549C49.0648 78.0144 49.1276 77.9693 49.1903 77.9287C49.9078 77.4508 49.2352 76.2787 48.5133 76.761C48.4505 76.8016 48.3877 76.8467 48.3249 76.8873C48.6523 77.0225 48.9841 77.1578 49.3114 77.293C49.2262 76.9729 49.141 76.6528 49.0558 76.3328C48.9796 76.0487 48.7016 75.8323 48.4057 75.8368C47.4595 75.8549 47.1367 77.0361 46.787 77.7394C47.204 77.8521 47.621 77.9648 48.0425 78.082C48.0335 77.4553 48.0873 76.8512 48.2263 76.2381C48.4146 75.386 47.1188 75.0253 46.926 75.8729Z" fill="#727272"/>
<path d="M45.6436 65.7563C45.675 66.2883 45.7019 66.8157 45.7333 67.3477C45.7691 68.015 46.6211 68.2719 46.9888 67.6904C47.2488 67.2756 47.5089 66.8653 47.769 66.4506C47.3834 66.4506 46.9933 66.4506 46.6076 66.4506C46.7018 66.6129 46.7601 66.7616 46.7691 66.951C46.8005 67.5461 47.4775 67.8301 47.917 67.4289C48.2577 67.1223 48.4774 66.7526 48.6434 66.3243C48.316 66.4596 47.9842 66.5948 47.6569 66.7301C47.6569 66.7391 47.6569 66.7481 47.6524 66.7526C47.5941 66.6534 47.5358 66.5543 47.4775 66.4551C47.491 66.4821 47.4999 66.5137 47.5134 66.5407C47.6524 66.8789 47.9573 67.1178 48.3429 67.0141C48.6568 66.9284 48.9527 66.5227 48.8137 66.1801C48.6972 65.9051 48.5761 65.7383 48.334 65.5579C47.9528 65.2739 47.4865 65.5985 47.3475 65.9637C47.2668 66.1711 47.1278 66.3243 46.9664 66.4731C47.3475 66.6309 47.7331 66.7932 48.1142 66.951C48.0918 66.5272 47.9842 66.135 47.769 65.7698C47.5044 65.3235 46.8767 65.3415 46.6076 65.7698C46.3476 66.1846 46.0875 66.5948 45.8274 67.0096C46.2444 67.1223 46.6615 67.235 47.0829 67.3522C47.0516 66.8202 47.0247 66.2928 46.9933 65.7608C46.9395 64.8907 45.5943 64.8862 45.6436 65.7563Z" fill="#727272"/>
<path d="M46.0068 56.8162C45.9664 57.1588 45.9485 57.5014 45.9575 57.8441C45.9709 58.3129 46.5359 58.7457 46.9708 58.4302C47.195 58.2679 47.334 58.083 47.4103 57.817C47.4282 57.7539 47.4461 57.6818 47.4551 57.6187C47.4641 57.56 47.4999 57.5555 47.4506 57.6006C47.2175 57.817 46.9708 58.1281 46.5987 57.6773C46.639 57.7269 46.6256 57.7223 46.5987 57.6637C46.6301 57.7314 46.6525 57.808 46.6839 57.8756C46.7377 57.9928 46.8184 58.0965 46.9081 58.1867C47.1861 58.4617 47.5986 58.5158 47.9349 58.322C48.2532 58.1416 48.3564 57.7088 48.177 57.3977C47.9887 57.0777 47.5762 56.974 47.2578 57.1543C47.2444 57.1633 47.2264 57.1723 47.213 57.1813C47.3251 57.1498 47.4372 57.1182 47.5537 57.0912C47.5896 57.0867 47.9125 57.267 47.8856 57.276C47.9035 57.3121 47.9035 57.3121 47.89 57.2805C47.8766 57.2445 47.8631 57.2084 47.8452 57.1723C47.7914 57.0416 47.7286 56.9199 47.63 56.8117C47.4103 56.5817 47.0695 56.469 46.7601 56.5682C46.4686 56.6584 46.2758 56.8928 46.1817 57.1768C46.1592 57.24 46.1503 57.3031 46.1323 57.3707C46.1234 57.4023 46.1144 57.4293 46.1099 57.4609C46.092 57.5195 46.092 57.5195 46.1144 57.4609C46.1413 57.3752 46.1996 57.3076 46.2893 57.2625C46.6256 57.4564 46.9619 57.6502 47.3026 57.8486C47.2937 57.5059 47.3116 57.1633 47.352 56.8207C47.3968 56.469 47.0112 56.1309 46.6794 56.1444C46.2803 56.1625 46.0561 56.442 46.0068 56.8162Z" fill="#727272"/>
<path d="M45.5943 49.8823C45.4687 50.3782 45.5315 50.8877 45.796 51.325C46.1099 51.8569 46.8318 51.6946 47.0246 51.1627C47.0964 50.9643 46.9888 51.2844 47.056 51.0815C47.0829 51.0049 47.1054 51.0409 47.0381 51.0725C46.8318 51.1807 46.5538 51.1086 46.4911 50.8381C46.5763 51.1942 46.9753 51.4061 47.3206 51.3114C47.6793 51.2123 47.8766 50.8381 47.7914 50.4774C47.6703 49.9635 47.1143 49.6884 46.6166 49.8057C46.1279 49.9274 45.8902 50.3557 45.7288 50.7975C46.1368 50.7434 46.5493 50.6893 46.9574 50.6352C46.8901 50.518 46.8812 50.527 46.8677 50.3872C46.8767 50.4594 46.8722 50.3692 46.8722 50.3467C46.8812 50.1483 46.8453 50.4278 46.8901 50.234C46.9753 49.8913 46.778 49.4856 46.4193 49.3999C46.0741 49.3278 45.6884 49.5126 45.5943 49.8823Z" fill="#727272"/>
<path d="M26.3671 48.2865C26.1698 48.548 25.9904 48.823 25.8335 49.1116C25.569 49.5849 26.0173 50.3243 26.5913 50.1034C26.7975 50.0268 26.9993 49.9456 27.2056 49.869C26.9321 49.7112 26.6541 49.5534 26.3761 49.3956C26.4119 49.4993 26.4299 49.5669 26.4254 49.6706C26.4209 50.0132 26.7393 50.3784 27.098 50.3468C27.4343 50.3198 27.7212 50.2386 28.0217 50.0944C28.349 49.9366 28.4342 49.4632 28.2638 49.1702C28.0665 48.8321 27.6719 48.7689 27.3446 48.9267C27.2773 48.9583 27.1518 48.9898 27.098 48.9944C27.3222 49.2198 27.5464 49.4452 27.7706 49.6706C27.775 49.4542 27.7437 49.2378 27.6719 49.0349C27.5598 48.7148 27.2056 48.4263 26.8424 48.5616C26.6361 48.6382 26.4344 48.7193 26.2281 48.796C26.4792 49.1251 26.7348 49.4587 26.9859 49.7878C27.1473 49.4993 27.3222 49.2243 27.5195 48.9628C27.7392 48.6698 27.5643 48.2054 27.2773 48.0386C26.941 47.8447 26.5868 47.9935 26.3671 48.2865Z" fill="#727272"/>
<path d="M22.5603 55.8786C22.3047 56.4421 22.085 57.0192 21.9056 57.6143C21.7935 57.984 22.0402 58.3266 22.3765 58.4483C22.6634 58.552 22.9728 58.4889 23.2239 58.3266C23.3315 58.2544 23.4033 58.1823 23.484 58.0876C23.7934 57.718 23.3674 58.1958 23.1163 57.8848C23.058 57.7856 22.9997 57.6864 22.9414 57.5872C22.9056 57.461 22.9325 57.7225 22.9325 57.718C22.9459 57.8217 22.9728 57.9299 23.0266 58.0245C23.1298 58.2003 23.3181 58.3446 23.5109 58.3987C23.8741 58.4979 24.3404 58.3581 24.4974 57.9885C24.6408 57.6548 24.596 57.2626 24.2552 57.0643C23.9727 56.8974 23.4795 56.9696 23.336 57.3077C23.3495 57.2897 23.3629 57.2716 23.3809 57.2581C23.4795 57.1995 23.5781 57.1409 23.6768 57.0823C23.8113 57.1229 23.9458 57.1634 24.0803 57.204C24.1386 57.3032 24.1969 57.4024 24.2552 57.5016C24.2911 57.6278 24.2642 57.3167 24.2552 57.2852C24.2193 57.1499 24.1566 57.0282 24.0669 56.929C23.901 56.7532 23.6858 56.6495 23.4436 56.636C23.2239 56.6269 23.0221 56.6901 22.8428 56.8163C22.7576 56.8749 22.6858 56.9425 22.6186 57.0237C22.3406 57.3483 22.5334 57.0733 22.7396 57.1454C22.8966 57.4249 23.0535 57.6999 23.2105 57.9794C23.3539 57.4971 23.5243 57.0282 23.7306 56.5683C23.8786 56.2347 23.8248 55.8425 23.4885 55.6441C23.1925 55.4683 22.7083 55.545 22.5603 55.8786Z" fill="#727272"/>
<path d="M21.0716 63.8539C20.9281 64.6293 20.9281 65.3822 21.0806 66.1576C21.1568 66.5408 21.5693 66.6851 21.9101 66.631C22.1074 66.5994 22.2912 66.4867 22.4302 66.3379C22.4885 66.2748 22.5423 66.1982 22.5917 66.126C22.6186 66.0855 22.641 66.0449 22.6634 65.9998C22.7038 65.9367 22.6903 65.9412 22.6141 66.0043C22.493 66.0043 22.3764 66.0043 22.2554 66.0043C22.2868 66.0133 22.3181 66.0223 22.3495 66.0314C22.2509 65.9728 22.1522 65.9141 22.0536 65.8555C22.0043 65.7518 21.9998 65.7564 22.0446 65.8691C22.067 65.9232 22.0895 65.9773 22.1119 66.0314C22.1836 66.1666 22.2823 66.2748 22.4078 66.356C22.7082 66.5588 22.9818 66.5453 23.3046 66.3965C23.6364 66.2478 23.7171 65.7609 23.5467 65.4723C23.3494 65.1297 22.9593 65.0801 22.6275 65.2289C22.6051 65.2379 22.5782 65.2514 22.5558 65.2604C22.7307 65.2379 22.9011 65.2154 23.0759 65.1928C23.049 65.1838 23.0221 65.1793 22.9952 65.1703C23.0939 65.2289 23.1925 65.2875 23.2912 65.3461C23.3181 65.4363 23.3181 65.4453 23.2956 65.3777C23.2732 65.3055 23.2463 65.2379 23.2149 65.1748C23.1746 65.0981 23.1297 65.0215 23.067 64.9584C22.8786 64.7555 22.6186 64.6608 22.345 64.6879C22.1074 64.7104 21.8967 64.8276 21.7307 64.999C21.65 65.0801 21.5828 65.1748 21.5245 65.274C21.511 65.301 21.4931 65.3281 21.4796 65.3551C21.3945 65.4814 21.4169 65.4678 21.5514 65.3191C21.8249 65.4768 22.1029 65.6346 22.3809 65.7924C22.2778 65.2695 22.2733 64.733 22.3719 64.21C22.4392 63.8493 22.2733 63.4797 21.9011 63.376C21.5693 63.2903 21.1389 63.4932 21.0716 63.8539Z" fill="#727272"/>
<path d="M22.0311 73.6142C22.2195 73.9929 22.4033 74.3716 22.5916 74.7503C22.7575 75.0839 23.2104 75.1606 23.5108 74.9938C23.753 74.8585 23.9189 74.6421 23.9951 74.3716C24.031 74.2499 24.0534 74.0966 24.04 73.9704C24.0265 73.8261 24.0893 73.8667 24.013 73.9343C23.9144 73.9929 23.8158 74.0515 23.7171 74.1101C23.7081 74.1146 23.6992 74.1146 23.6902 74.1192C23.5781 74.0876 23.466 74.056 23.3494 74.029C23.5826 74.1642 23.6947 74.3806 24.0355 74.3806C24.439 74.3806 24.5287 74.1417 24.7708 73.9028C24.6722 73.9614 24.5735 74.02 24.4749 74.0786C24.3449 73.9974 24.2148 73.9163 24.0848 73.8306C24.1386 74.1913 24.5915 74.3897 24.9143 74.304C25.2999 74.1958 25.4389 73.8351 25.3851 73.47C25.3224 73.0642 24.9412 72.7622 24.5466 72.7216C24.0848 72.6765 23.7844 72.929 23.5647 73.3077C23.6454 73.2265 23.7261 73.1454 23.8068 73.0642C23.7844 73.0822 23.7575 73.1003 23.735 73.1183C23.8471 73.0868 23.9592 73.0552 24.0758 73.0281C24.0534 73.0281 24.0265 73.0281 24.0041 73.0281C24.1162 73.0597 24.2283 73.0913 24.3449 73.1183C24.2641 73.0732 24.0534 72.8433 23.874 72.7937C23.6185 72.7216 23.3494 72.7757 23.1387 72.9335C22.9504 73.0732 22.8203 73.2806 22.7531 73.5015C22.7082 73.6413 22.7575 73.9253 22.6858 74.0245C22.7665 73.9433 22.8472 73.8622 22.9279 73.781C22.901 73.7946 22.8741 73.8126 22.8427 73.8261C23.1476 73.9073 23.457 73.9884 23.7619 74.0696C23.5736 73.6909 23.3898 73.3122 23.2015 72.9335C22.8069 72.149 21.6455 72.8343 22.0311 73.6142Z" fill="#727272"/>
<path d="M26.1833 83.6587C26.1609 84.2403 26.7617 84.5694 27.2684 84.4116C27.5105 84.335 27.6854 84.1637 27.802 83.9473C27.8199 83.9112 27.8379 83.8706 27.8558 83.8346C27.9544 83.6768 27.8558 83.7219 27.5509 83.9788C27.4119 83.9608 27.4747 83.9608 27.5733 84.0149C27.8917 84.1907 28.3087 84.0915 28.4925 83.7715C28.6719 83.4604 28.5687 83.0231 28.2504 82.8472C27.9186 82.6624 27.5419 82.5542 27.1742 82.7075C26.9859 82.7886 26.829 82.9239 26.7214 83.1042C26.69 83.1538 26.6586 83.2124 26.6406 83.271C26.6317 83.2891 26.6227 83.3071 26.6137 83.3251C26.8469 83.0636 27.089 83.0411 27.3446 83.2575C27.4029 83.3567 27.4612 83.4559 27.5195 83.5551C27.524 83.5911 27.5285 83.6272 27.533 83.6633C27.5464 83.3071 27.2146 82.969 26.8604 82.987C26.4792 83.0005 26.1967 83.28 26.1833 83.6587Z" fill="#727272"/>
<path d="M51.0377 50.1576C51.1184 50.5634 51.2574 50.9421 51.4323 51.3163C51.5982 51.6634 52.0511 51.7085 52.3515 51.5597C52.5219 51.4741 52.6609 51.3208 52.7506 51.154C52.7775 51.1044 52.7954 51.0503 52.8223 50.9962C52.9658 50.6851 52.8179 51.154 52.4726 51.1179C52.3605 51.0863 52.2484 51.0548 52.1318 51.0277C52.0556 50.9917 52.2439 51.1134 52.2439 51.1134C52.3157 51.1675 52.365 51.199 52.4502 51.2351C52.625 51.3118 52.8044 51.3253 52.9927 51.2982C53.3963 51.2306 53.6339 50.9691 53.7864 50.604C53.9254 50.2658 53.6339 49.8601 53.3156 49.7699C52.93 49.6617 52.6295 49.9052 52.486 50.2433C52.643 49.9502 52.8403 49.8871 53.0734 50.0539C53.0555 50.0359 53.0376 50.0179 53.0152 50.0043C52.93 49.9187 52.7685 49.8285 52.652 49.797C52.4367 49.7384 52.2036 49.7744 52.0152 49.8871C51.8583 49.9818 51.7462 50.1306 51.67 50.2929C51.652 50.3335 51.6296 50.3785 51.6117 50.4236C51.5624 50.5679 51.5893 50.4326 51.67 50.3966C51.9749 50.4777 52.2843 50.5589 52.5892 50.64C52.4636 50.374 52.3874 50.0945 52.3291 49.806C52.2618 49.4453 51.8314 49.2424 51.4996 49.3326C51.1364 49.4273 50.9705 49.797 51.0377 50.1576Z" fill="#727272"/>
<path d="M52.5982 57.8982C52.6834 58.3265 52.773 58.7548 52.8582 59.1831C53.0017 59.8909 53.9478 59.7602 54.1541 59.1831C54.2214 58.9892 54.3379 58.863 54.4859 58.7278C54.1317 58.6827 53.7819 58.6376 53.4277 58.5925C53.5443 58.863 53.6653 59.138 53.7819 59.4085C53.9164 59.7196 54.4366 59.8548 54.7011 59.652C54.8626 59.5302 54.9926 59.422 55.0957 59.2417C55.1316 59.1786 55.1719 59.1019 55.1944 59.0298C55.2033 58.9983 55.2168 58.9667 55.2347 58.9397C55.3423 58.7413 55.1361 58.6782 54.6115 58.7503C54.5621 59.111 54.9567 59.4265 55.284 59.4265C55.6876 59.4265 55.9073 59.1155 55.9566 58.7503C56.0329 58.1868 55.5082 57.6773 54.9657 57.6773C54.6922 57.6773 54.4455 57.799 54.2617 57.9929C54.1765 58.0831 54.1182 58.1823 54.0599 58.2905C54.0241 58.3626 53.8851 58.588 54.0241 58.4843C54.329 58.5655 54.6384 58.6466 54.9433 58.7278C54.8267 58.4573 54.7056 58.1823 54.589 57.9118C54.4052 57.488 53.8178 57.515 53.5308 57.7765C53.208 58.0695 53.0017 58.4212 52.8538 58.8269C53.2842 58.8269 53.7192 58.8269 54.1496 58.8269C54.0644 58.3987 53.9747 57.9704 53.8895 57.5421C53.7236 56.6855 52.4233 57.0462 52.5982 57.8982Z" fill="#727272"/>
<path d="M53.7774 68.2403C53.7371 68.5784 53.7774 68.9256 53.8671 69.2502C53.9792 69.6424 54.4904 69.9084 54.8536 69.6559C55.0912 69.4891 55.2347 69.3088 55.3379 69.0383C55.3648 68.9707 55.3872 68.8985 55.4096 68.8264C55.45 68.6821 55.4096 68.876 55.293 68.894C55.172 68.894 55.0554 68.894 54.9343 68.894C54.8222 68.8489 54.7505 68.7813 54.7325 68.6821C54.7191 68.6371 54.7236 68.6506 54.7505 68.7227C54.7639 68.7633 54.7774 68.8084 54.7908 68.8489C54.867 69.0563 54.9747 69.2231 55.145 69.3629C55.5127 69.6604 55.9297 69.6109 56.2885 69.3313C56.5754 69.1059 56.5216 68.61 56.2885 68.3756C56.006 68.0915 55.6248 68.1502 55.3379 68.3756C55.3244 68.3891 55.3065 68.3981 55.293 68.4116C55.3917 68.353 55.4903 68.2944 55.589 68.2358C55.571 68.2403 55.5531 68.2448 55.5352 68.2493C55.6562 68.2493 55.7728 68.2493 55.8939 68.2493C55.9746 68.2629 56.0912 68.5108 56.0418 68.362C56.006 68.2448 55.9611 68.1231 55.8983 68.0194C55.71 67.7129 55.3782 67.537 55.024 67.5731C54.7101 67.6047 54.4545 67.803 54.2841 68.0645C54.2124 68.1772 54.1631 68.3034 54.1227 68.4297C54.1093 68.4702 54.0824 68.5289 54.0779 68.5694C54.0734 68.628 54.0644 68.5559 54.1765 68.4793C54.5038 68.6145 54.8357 68.7498 55.163 68.885C55.1002 68.6641 55.0912 68.4657 55.1181 68.2358C55.1585 67.8706 54.7774 67.5596 54.4456 67.5596C54.0554 67.5641 53.8223 67.8752 53.7774 68.2403Z" fill="#727272"/>
<path d="M53.4053 76.202C53.3694 76.6438 53.4053 77.0766 53.4725 77.5139C53.5532 78.0234 54.2752 78.1541 54.598 77.8115C54.7146 77.6898 54.8356 77.568 54.9612 77.4553C55.0733 77.3561 55.1899 77.257 55.2796 77.1938C54.9522 77.0586 54.6204 76.9233 54.2931 76.7881C54.3334 76.9053 54.3334 76.7701 54.32 76.8963C54.329 76.8016 54.2662 76.9819 54.311 76.9053C54.1362 77.2254 54.2348 77.6447 54.5532 77.8295C54.8626 78.0098 55.2975 77.9107 55.4724 77.5861C55.6652 77.2299 55.728 76.8151 55.5934 76.4274C55.4634 76.0577 54.9791 75.7467 54.607 76.0217C54.2662 76.2741 53.9478 76.5446 53.6564 76.8512C54.033 76.9504 54.4052 77.0496 54.7818 77.1488C54.737 76.8557 54.737 76.5131 54.7594 76.193C54.7863 75.8413 54.4321 75.5032 54.0868 75.5168C53.6922 75.5438 53.4367 75.8233 53.4053 76.202Z" fill="#727272"/>
<path d="M52.9748 85.0339C52.7327 85.4442 52.5489 85.895 52.4457 86.3639C52.365 86.72 52.5534 87.0942 52.9165 87.1979C53.2932 87.3016 53.616 87.0717 53.7461 86.7245C53.7864 86.6118 53.9209 86.3684 53.9927 86.2737C53.6743 86.2737 53.3605 86.2737 53.0421 86.2737C52.9614 86.1745 52.939 86.0663 52.9704 85.9401C52.9121 86.3008 53.0645 86.6659 53.4412 86.7741C53.764 86.8643 54.2079 86.6659 54.2707 86.3008C54.3335 85.9266 54.2662 85.5975 53.9972 85.3179C53.764 85.0745 53.2708 85.0339 53.0466 85.3179C52.7865 85.6425 52.5982 85.9716 52.4502 86.3639C52.8807 86.4856 53.3156 86.6028 53.7461 86.7245C53.8313 86.3458 53.9434 86.0483 54.1407 85.7192C54.3245 85.4036 54.2124 84.9753 53.8985 84.795C53.5802 84.6056 53.1632 84.7183 52.9748 85.0339Z" fill="#727272"/>
<path d="M57.8982 87.7343C57.6202 88.0995 57.4901 88.5504 57.4677 89.0057C57.4543 89.2717 57.6471 89.5287 57.8802 89.6233C58.1448 89.7315 58.4004 89.6684 58.6156 89.4836C58.9474 89.1995 59.2792 88.911 59.611 88.627C59.2568 88.5819 58.907 88.5368 58.5528 88.4917C58.5259 88.4512 58.5394 88.3926 58.5439 88.3475C58.5483 88.3159 58.6201 88.2077 58.5483 88.3204C58.3555 88.6315 58.4811 89.0643 58.7905 89.2446C59.1133 89.434 59.5169 89.3123 59.7097 89.0012C59.9384 88.636 59.9339 88.1717 59.7142 87.802C59.4765 87.4052 58.9878 87.3827 58.656 87.6667C58.3241 87.9507 57.9923 88.2393 57.6605 88.5233C58.0416 88.6811 58.4273 88.8434 58.8084 89.0012C58.8174 88.7983 58.7725 89.0913 58.8174 88.8975C58.8353 88.8299 58.8532 88.7577 58.8757 88.6901C58.8398 88.7848 58.9295 88.5954 58.9295 88.5909C58.9653 88.5278 59.0057 88.4692 59.0505 88.4151C59.2702 88.1221 59.0954 87.6577 58.8084 87.4909C58.4721 87.288 58.1224 87.4413 57.8982 87.7343Z" fill="#727272"/>
<path d="M60.3823 78.88C60.2881 79.3939 60.2343 79.9124 60.2298 80.4398C60.2208 81.1025 61.158 81.373 61.4853 80.7825C61.6871 80.4128 61.9247 80.0927 62.2207 79.7951C61.9472 79.8312 61.6781 79.8673 61.4046 79.8988C61.3911 79.8898 61.3732 79.8763 61.3598 79.8673C61.3015 79.7681 61.2432 79.6689 61.1849 79.5697C61.1714 79.5292 61.2163 79.4029 61.1714 79.5472C61.14 79.6373 61.1221 79.7816 61.1176 79.8673C61.1087 80.0837 61.1714 80.2956 61.297 80.4714C61.4405 80.6652 61.6781 80.796 61.9247 80.796C62.0593 80.796 62.2162 80.7554 62.3328 80.6923C62.3552 80.6788 62.3731 80.6698 62.3955 80.6562C62.5032 80.5886 62.4718 80.5841 62.3014 80.6427C62.1893 80.6111 62.0772 80.5796 61.9606 80.5525C61.7812 80.4624 61.7678 80.3587 61.7857 80.2279C61.7364 80.5886 61.8754 80.9538 62.2565 81.062C62.5704 81.1476 63.0323 80.9538 63.0861 80.5886C63.1399 80.2009 63.1219 79.8087 62.826 79.5156C62.678 79.3714 62.4538 79.2857 62.2476 79.2902C62.1131 79.2947 61.9561 79.3398 61.8395 79.4029C61.8081 79.421 61.6602 79.4841 61.7454 79.466C61.8664 79.466 61.983 79.466 62.1041 79.466C62.0862 79.4615 62.0637 79.4525 62.0458 79.448C62.1444 79.5066 62.2431 79.5652 62.3417 79.6238C62.3866 79.998 62.4269 80.0927 62.4673 79.9078C62.4852 79.8628 62.4942 79.8177 62.5032 79.7681C62.5256 79.6644 62.5345 79.5562 62.5256 79.448C62.5076 79.1505 62.3552 78.8664 62.0817 78.7357C61.8126 78.6004 61.4898 78.6185 61.2656 78.8394C60.8934 79.2136 60.5751 79.6373 60.3195 80.0972C60.7365 80.2099 61.1535 80.3226 61.575 80.4398C61.5795 80.0386 61.6109 79.6373 61.6826 79.2406C61.7454 78.88 61.584 78.5103 61.2118 78.4066C60.88 78.3164 60.445 78.5193 60.3823 78.88Z" fill="#727272"/>
<path d="M61.288 69.5704C61.0952 70.0348 61.0907 70.5622 61.2387 71.0401C61.445 71.6983 62.3148 71.6668 62.5346 71.0401C62.6467 70.7155 62.8484 70.4585 63.104 70.2331C62.7229 70.0753 62.3373 69.913 61.9561 69.7553C61.9696 69.9852 61.9875 70.2151 62.001 70.4405C62.0279 70.8372 62.2879 71.0717 62.6736 71.1168C62.8888 71.1438 63.0861 71.0717 63.2654 70.9545C63.3417 70.9049 63.4089 70.8463 63.4672 70.7786C63.4896 70.7471 63.5165 70.72 63.539 70.693C63.6197 70.6073 63.5524 70.6254 63.3327 70.7471C63.2206 70.7155 63.1085 70.684 62.9919 70.6569C62.956 70.6163 62.9157 70.5758 62.8798 70.5352C62.8484 70.4225 62.817 70.3098 62.7901 70.1926C62.7901 70.2106 62.7901 70.2286 62.7946 70.2467C62.826 70.134 62.8574 70.0212 62.8843 69.904C62.8753 69.9176 62.8664 69.9356 62.8574 69.9491C62.4 70.693 63.5659 71.3737 64.0187 70.6299C64.2878 70.1926 64.0636 69.6245 63.5928 69.4532C63.3461 69.363 63.095 69.3811 62.8664 69.5073C62.7722 69.5569 62.6915 69.629 62.6153 69.7057C62.5973 69.7237 62.5839 69.7462 62.5659 69.7643C62.4763 69.8544 62.5121 69.8544 62.6736 69.7643C62.8978 69.9897 63.122 70.2151 63.3461 70.4405C63.3327 70.2106 63.3148 69.9807 63.3013 69.7553C63.261 69.1556 62.6018 68.8806 62.1534 69.2774C61.723 69.6606 61.427 70.1385 61.2387 70.6795C61.6692 70.6795 62.1041 70.6795 62.5346 70.6795C62.4494 70.4044 62.4763 70.1926 62.5839 69.9311C62.7229 69.593 62.4314 69.1872 62.1131 69.097C61.7274 68.9888 61.427 69.2323 61.288 69.5704Z" fill="#727272"/>
<path d="M60.7276 57.7178C60.7634 58.0964 60.8038 58.4797 60.8397 58.8584C60.871 59.192 61.0683 59.4805 61.4226 59.5211C61.7454 59.5617 62.0772 59.3678 62.1624 59.0387C62.2342 58.7502 62.3328 58.4887 62.4763 58.2317C62.0907 58.2317 61.7006 58.2317 61.315 58.2317C61.3822 58.3579 61.4495 58.4842 61.5123 58.6059C61.7589 59.0702 62.4135 59.0161 62.6736 58.6059C62.696 58.5698 62.7274 58.5383 62.7274 58.5247C62.7991 58.4616 62.7498 58.4661 62.5884 58.5383C62.5167 58.5788 62.4449 58.5879 62.3732 58.5743C62.2925 58.4932 62.2118 58.412 62.131 58.3309C62.1266 58.3128 62.1221 58.2948 62.1176 58.2768C62.3777 59.1018 63.678 58.7502 63.4135 57.9161C63.2789 57.4923 62.9112 57.2263 62.4629 57.2399C62.0279 57.2534 61.723 57.578 61.5078 57.9206C61.8934 57.9206 62.2835 57.9206 62.6691 57.9206C62.6019 57.7944 62.5346 57.6682 62.4718 57.5464C62.2387 57.1046 61.5481 57.1091 61.3105 57.5464C61.1177 57.9026 60.9652 58.2813 60.8621 58.678C61.3015 58.7366 61.7409 58.7997 62.1848 58.8584C62.149 58.4797 62.1086 58.0964 62.0727 57.7178C62.0369 57.3526 61.7903 57.0415 61.4002 57.0415C61.0639 57.0415 60.6917 57.3526 60.7276 57.7178Z" fill="#727272"/>
<path d="M57.3959 50.1575C57.5663 50.5902 57.7771 50.9509 58.073 51.3116C58.4138 51.7263 59.055 51.4558 59.1985 51.014C59.3016 50.6894 59.3465 50.3378 59.3151 49.9997C58.8981 50.1124 58.4811 50.2251 58.0596 50.3423C58.1896 50.5948 58.3735 50.8247 58.5932 51.005C58.8757 51.2349 59.2702 51.28 59.5438 51.005C59.7814 50.7661 59.8262 50.2792 59.5438 50.0493C59.463 49.9861 59.3868 49.914 59.324 49.8374C59.2568 49.7517 59.3644 49.905 59.3061 49.8103C59.2747 49.7607 59.2478 49.7111 59.2209 49.6615C59.0819 49.391 58.7366 49.2693 58.4586 49.346C58.1941 49.4181 57.9385 49.7066 57.9654 49.9997C57.9923 50.2837 57.9833 50.3964 57.8982 50.6534C58.2748 50.5542 58.647 50.455 59.0236 50.3558C58.9653 50.2882 58.907 50.2025 58.8398 50.0853C58.8084 50.0312 58.777 49.9726 58.7456 49.9185C58.7366 49.905 58.6649 49.7337 58.6873 49.8013C58.5528 49.4632 58.2389 49.2242 57.8578 49.3279C57.5439 49.4136 57.2614 49.8148 57.3959 50.1575Z" fill="#727272"/>
<path d="M64.1891 49.6345C64.2429 49.9185 64.3506 50.1935 64.4985 50.446C64.651 50.703 64.9693 50.8382 65.2563 50.7571C65.5612 50.6714 65.7226 50.4054 65.7495 50.1034C65.7809 49.7878 65.8123 49.4677 65.8437 49.1521C65.5074 49.346 65.1711 49.5398 64.8303 49.7382C65.0366 49.8915 65.2429 50.0493 65.4491 50.2025C65.7406 50.4189 66.2024 50.2521 66.3683 49.9591C66.5701 49.6165 66.4177 49.2513 66.1262 49.0349C65.9199 48.8816 65.7137 48.7238 65.5074 48.5705C65.3191 48.4308 65.0187 48.4578 64.8303 48.5705C64.6106 48.7013 64.5209 48.9087 64.4985 49.1566C64.4671 49.4722 64.4358 49.7923 64.4044 50.1079C64.8214 49.9952 65.2384 49.8824 65.6599 49.7652C65.5523 49.5849 65.5254 49.4992 65.485 49.2783C65.4177 48.9177 64.9873 48.7148 64.6555 48.805C64.2878 48.9041 64.1264 49.2738 64.1891 49.6345Z" fill="#727272"/>
<path d="M67.1754 57.7494C67.2382 58.1236 67.3279 58.4843 67.449 58.8449C67.588 59.2732 68.0364 59.4536 68.4354 59.2507C68.682 59.1245 68.839 58.89 68.9018 58.624C68.9331 58.5023 68.9376 58.3716 68.9466 58.2408C68.9466 58.1957 68.9511 58.1507 68.9556 58.1056C68.9466 58.2949 68.821 58.4167 68.5744 58.4798C68.4623 58.4482 68.3502 58.4167 68.2337 58.3896C68.7628 58.6511 69.1753 58.8269 69.7806 58.6917C70.6236 58.5023 70.2694 57.1949 69.4219 57.3888C69.2112 57.4384 69.0901 57.3121 68.9107 57.222C68.5969 57.0687 68.2381 57.0912 67.9646 57.3076C67.7584 57.4699 67.6642 57.6953 67.6283 57.9523C67.6149 58.0515 67.6104 58.1462 67.6014 58.2453C67.5925 58.331 67.5969 58.3355 67.6059 58.2679C67.5611 58.4212 67.6104 58.358 67.7584 58.0875C68.0857 58.2228 68.4175 58.358 68.7448 58.4933C68.6282 58.1326 68.5386 57.772 68.4713 57.3978C68.4085 57.0371 67.9691 56.8342 67.6418 56.9244C67.2651 57.0191 67.1127 57.3888 67.1754 57.7494Z" fill="#727272"/>
<path d="M68.7403 67.5325C68.6955 67.8752 68.6462 68.2178 68.6013 68.5604C68.561 68.8625 68.6282 69.16 68.9107 69.3223C69.1439 69.4621 69.5474 69.4486 69.7268 69.2186C69.8254 69.0879 69.9241 68.9797 70.081 68.9256C69.7985 68.7092 69.5116 68.4928 69.2291 68.2719C69.238 68.5424 69.2425 68.8129 69.2515 69.0834C69.265 69.5342 69.6685 69.8408 70.1034 69.7371C70.3187 69.6875 70.498 69.5793 70.6684 69.4441L70.8343 69.3133C70.8209 69.2953 70.6057 69.3088 70.5563 69.2547C70.498 69.1555 70.4397 69.0563 70.3815 68.9572C70.3904 68.9797 70.3949 69.0022 70.4039 69.0248C70.6864 69.8408 71.9867 69.4891 71.6997 68.6641C71.5428 68.2178 71.1841 67.9653 70.7088 67.9789C70.516 67.9834 70.3142 68.0465 70.1483 68.1457C70.0138 68.2268 69.8882 68.3936 69.7358 68.4297C70.0183 68.6461 70.3052 68.8625 70.5877 69.0834C70.5787 68.8129 70.5743 68.5424 70.5653 68.2719C70.5563 67.8571 70.1393 67.4739 69.7133 67.6182C69.3412 67.7489 69.0094 67.9473 68.7672 68.2629C69.1439 68.4838 69.5161 68.7002 69.8927 68.9211C69.9375 68.5785 69.9869 68.2358 70.0317 67.8932C70.081 67.5325 69.9465 67.1674 69.5609 67.0592C69.256 66.9735 68.7897 67.1674 68.7403 67.5325Z" fill="#727272"/>
<path d="M66.8078 78.7311C66.7136 79.1144 66.6194 79.4976 66.5298 79.8808C66.4446 80.2324 66.6374 80.6201 67.0006 80.7148C67.3234 80.8005 67.6328 80.7373 67.8974 80.5255C68.1081 80.3541 68.1843 80.0881 68.3771 79.9213C68.2785 79.9799 68.1798 80.0386 68.0812 80.0972C68.1126 80.0836 68.144 80.0701 68.1798 80.0566C68.0588 80.0566 67.9422 80.0566 67.8211 80.0566C67.8525 80.0611 67.8839 80.0701 67.9198 80.0746C67.7853 79.9709 67.6507 79.8672 67.5162 79.7635C67.5072 79.7094 67.5117 79.723 67.5252 79.8131C67.5566 79.8898 67.588 79.9664 67.6238 80.0431C67.7135 80.1918 67.8525 80.2955 68.005 80.3632C68.1664 80.4353 68.3457 80.4443 68.5206 80.4082C68.5789 80.4037 68.6372 80.3857 68.691 80.3632C68.9556 80.2775 68.9018 80.2504 68.5296 80.2865C68.4489 80.2054 68.3682 80.1242 68.2875 80.0431C68.2964 80.0566 68.3099 80.0746 68.3188 80.0881C68.2875 79.9754 68.2561 79.8627 68.2292 79.7455C68.2292 79.7635 68.2292 79.7861 68.2247 79.8041C68.1843 80.6742 69.5295 80.6742 69.5699 79.8041C69.5878 79.4344 69.3367 79.1234 68.9914 79.0152C68.83 78.9656 68.6507 78.9611 68.4847 79.0016C68.4265 79.0152 68.1978 79.0603 68.265 79.0693C68.3771 79.1008 68.4892 79.1324 68.6058 79.1594C68.5834 79.1459 68.5655 79.1279 68.543 79.1143C68.6237 79.1955 68.7045 79.2766 68.7852 79.3578C68.7538 79.2947 68.682 79.0557 68.5699 78.9385C68.3906 78.7582 68.0633 78.677 67.8211 78.7447C67.6238 78.7988 67.4534 78.916 67.3189 79.0648C67.2472 79.1459 67.1844 79.2361 67.1306 79.3307C67.1127 79.3623 67.0992 79.3939 67.0813 79.4209C66.9557 79.5922 67.0499 79.5877 67.3638 79.4029C67.5207 79.6824 67.6776 79.9574 67.8346 80.2369C67.9287 79.8537 68.0229 79.4705 68.1126 79.0873C68.3099 78.2442 67.014 77.8836 66.8078 78.7311Z" fill="#727272"/>
<path d="M65.3819 86.8642C65.4805 86.9408 65.5792 87.0174 65.6778 87.0941C65.9648 87.3195 66.4311 87.1392 66.597 86.8506C66.7988 86.5035 66.6463 86.1473 66.3549 85.9264C66.2562 85.8498 66.1576 85.7731 66.0589 85.6965C65.772 85.4711 65.3056 85.6514 65.1397 85.94C64.938 86.2871 65.0949 86.6387 65.3819 86.8642Z" fill="#727272"/>
</g>
<g clip-path="url(#clip1_82645_302)">
<path d="M35.2992 44.7374C35.8584 40.1054 32.6253 36.647 29.1803 33.9798C27.1737 32.4239 25.2122 31.1259 23.9046 28.8988C23.2372 27.7564 22.5969 26.4672 22.2226 25.2003C21.4922 22.7332 22.7547 18.8569 25.8796 21.7019C27.6787 23.3422 28.0936 25.4581 29.4689 27.2807C30.2444 28.312 31.4349 28.8632 32.6749 28.2053C36.404 26.2316 33.5181 19.3858 32.6839 16.6653C31.6738 13.3714 31.1418 10.2019 32.8417 7.03235C33.4009 5.99215 34.0276 4.92083 34.7446 3.98287C35.209 3.37831 35.7997 2.72485 36.4626 2.30699C37.8334 1.43571 38.6585 1.43571 40.1736 1.89802C41.7879 2.39145 41.8014 2.47591 42.1306 4.0051C42.2839 4.7119 42.347 5.48983 42.3831 6.21886C42.4598 7.76138 42.3335 9.31724 42.0134 10.8331C41.4136 13.7092 39.6866 16.2519 39.3079 19.1725C39.0283 21.3196 39.2222 28.1431 42.8115 27.503C47.0185 26.7517 46.7164 20.0927 50.9099 19.2036C54.4 18.4612 56.1045 22.2442 54.6255 24.8402C53.8229 26.2538 52.4882 27.3474 51.203 28.312C48.9124 30.0323 46.1122 30.9303 43.8621 32.6684C39.7903 35.8246 41.1431 40.7855 42.816 44.853C43.1407 45.6398 44.4483 45.2931 44.1191 44.4974C42.9919 41.7546 41.576 38.3984 43.1001 35.5179C44.5114 32.8507 48.236 31.9172 50.6394 30.3435C53.886 28.2187 58.544 24.2179 55.7934 20.0082C53.4937 16.4831 49.0386 17.6611 46.9374 20.6128C46.3016 21.5063 45.8101 22.4887 45.2464 23.4266C44.9894 23.8534 44.7324 24.2846 44.4303 24.6846C44.2138 24.9425 43.9974 25.1959 43.781 25.4537C42.072 25.8271 41.1882 25.3781 41.1296 24.0979C39.4161 20.5061 41.4903 16.8254 42.6537 13.5136C43.5194 11.0509 43.8892 8.42817 43.7043 5.82767C43.578 4.02732 43.3887 1.5913 41.6707 0.515535C40.1601 -0.431314 37.8379 0.111013 36.3544 0.848933C34.1449 1.95137 32.7921 4.2896 31.6738 6.37C28.8015 11.7133 31.7009 16.4208 32.7696 21.8041C32.9094 22.5198 33.2656 24.089 33.0266 24.8847C32.2961 25.5426 31.5656 26.1961 30.8306 26.854C30.4113 26.325 30.0956 25.7471 29.8747 25.1114C29.4508 24.1823 29.0044 23.3155 28.3867 22.4887C27.4127 21.1817 25.5729 19.0347 23.6926 19.1414C21.8664 19.248 20.7932 21.1506 20.5993 22.7376C20.3107 25.0847 21.5868 27.5874 22.7412 29.5789C25.9427 35.0956 34.8663 37.1271 33.9465 44.7463C33.8473 45.5865 35.2 45.582 35.2992 44.7374Z" fill="#46A358"/>
<path d="M46.9869 22.573C47.9609 17.7054 46.1212 13.2557 45.7379 8.45031C45.5079 5.57865 46.748 0.986648 50.689 2.29357C53.6244 3.26709 54.7382 6.71664 54.5398 9.47718C54.3955 11.4953 53.4125 17.4165 57.3535 16.8653C60.7354 16.3941 62.4804 10.8374 64.1218 8.48143C65.5286 6.46326 68.6354 3.51603 71.368 4.33841C75.6968 5.64088 72.9237 10.7619 70.9306 12.7756C67.5713 16.1674 63.991 19.1679 61.0285 22.9464C59.3105 25.138 57.8225 28.7387 61.6327 29.7211C63.0982 30.0989 64.5096 29.5966 65.8307 29.0009C66.8949 28.5209 67.9095 27.9474 69.0413 27.6318C71.1065 27.0539 73.5008 27.5073 72.1346 30.0367C68.9376 35.9623 61.6192 31.5926 56.8981 34.0775C52.8939 36.189 51.9605 40.8566 52.3393 44.9507C52.416 45.7997 53.7732 45.8086 53.6921 44.9507C53.426 42.0968 53.656 39.0118 55.6581 36.7491C58.2463 33.8241 61.7003 34.891 65.1273 34.8243C68.6264 34.7576 73.1311 33.0862 73.8571 29.2321C74.6507 25.0091 69.7718 25.827 67.2692 26.845C66.1644 27.294 65.1318 27.9919 63.9775 28.3208C63.0621 28.5831 61.6147 28.7253 60.8932 27.8763C60.1943 27.0495 60.7579 25.6581 61.1908 24.9557C62.7735 22.3774 65.1995 20.0259 67.3548 17.9055C70.3264 14.9805 75.3947 11.8776 74.9573 7.10783C74.6236 3.45824 71.2057 2.1202 68.0538 3.48935C66.1599 4.31174 64.5952 5.61865 63.3597 7.25008C61.7454 9.37938 60.8842 12.3044 58.9588 14.1803C58.2644 14.856 57.5835 16.2918 56.0323 14.8827C55.3424 14.2559 55.5498 12.5844 55.622 11.7265C55.7167 10.6018 55.9602 9.50385 55.9241 8.3703C55.8655 6.45437 55.2207 4.51177 53.9626 3.02704C51.3022 -0.102451 46.7344 0.0353538 44.9668 3.96056C43.9117 6.30768 44.3761 8.99264 44.818 11.4287C45.4674 15.0249 46.4188 18.5545 45.6838 22.2174C45.517 23.0576 46.8201 23.4176 46.9869 22.573Z" fill="#46A358"/>
<path d="M46.6849 31.0059C46.0491 35.589 45.0075 40.0787 43.5555 44.4796C43.285 45.2975 44.5926 45.6487 44.8587 44.8352C46.3106 40.4344 47.3522 35.9446 47.988 31.3615C48.1053 30.5169 46.8021 30.1568 46.6849 31.0059Z" fill="#46A358"/>
<path d="M30.5059 43.9728C30.3301 40.4432 27.8455 38.0605 24.9867 36.2468C23.1335 35.0688 21.1043 34.0864 19.5126 32.5528C18.8272 31.8949 17.5511 30.6191 17.4835 29.5967C17.2535 26.1871 21.4786 28.841 22.4165 29.6278C23.0748 30.1834 24.0353 29.241 23.3724 28.6854C21.898 27.4451 19.2511 25.8315 17.2265 26.765C15.5941 27.5163 15.8647 29.3788 16.4915 30.7213C19.1293 36.4247 28.806 37.0781 29.1532 43.9728C29.1938 44.8263 30.551 44.8307 30.5059 43.9728Z" fill="#46A358"/>
<path d="M60.8391 45.293C62.5256 42.7859 64.7486 40.7366 67.4721 39.3585C69.9522 38.105 73.0274 37.8871 75.2234 36.1135C77.744 34.0775 77.8748 29.0855 73.7038 29.2144C72.8335 29.241 72.8335 30.5746 73.7038 30.548C75.3496 30.7702 76.017 31.6682 75.7149 33.2374C75.3767 34.1398 74.804 34.851 73.9969 35.3667C73.0094 36.0557 71.8099 36.3713 70.6736 36.7269C69.2262 37.1803 67.8148 37.656 66.4756 38.3672C63.6889 39.852 61.4118 42.0302 59.6668 44.6218C59.1843 45.3375 60.3567 46.0043 60.8391 45.293Z" fill="#46A358"/>
<path d="M64.5141 33.5619C58.7829 34.6287 56.6681 40.252 55.3109 45.173C55.0809 46.0043 56.3886 46.3554 56.614 45.5286C57.8495 41.0522 59.6307 35.8245 64.8748 34.851C65.7271 34.6865 65.3663 33.4018 64.5141 33.5619Z" fill="#46A358"/>
<path d="M34.2937 13.2647C33.6218 10.602 34.4605 7.68585 36.6339 5.89884C37.0713 5.52099 37.5673 5.23205 38.1129 5.03201C39.6145 5.34762 40.3134 6.13889 40.2097 7.4058C40.2368 8.14372 40.0925 8.87275 39.9166 9.584C39.5604 11.0198 38.9336 12.3845 38.4692 13.7893C37.2742 17.4077 35.5562 23.3244 38.7848 26.405C39.0959 26.7029 39.5784 26.2317 39.2628 25.9338C36.431 23.2355 37.883 18.0479 38.8524 14.8161C39.6911 12.0156 41.9683 8.29486 40.4307 5.35207C39.2312 3.05829 36.4806 4.92087 35.3127 6.26336C33.5857 8.25041 33.0041 10.922 33.6398 13.4425C33.7481 13.8604 34.3974 13.6826 34.2937 13.2647Z" fill="#46A358"/>
<path d="M48.5877 24.0623C48.9755 23.2132 49.7601 22.013 50.8107 21.8707C52.4115 21.6529 53.2367 23.6355 52.3799 24.9469C51.5728 26.1827 50.0352 27.0451 48.7095 27.5741C46.5045 28.4498 45.0255 29.6589 43.4247 31.3881C43.1316 31.7038 43.6096 32.1794 43.9027 31.8593C44.8722 30.8058 45.8642 29.7123 47.1268 28.9832C48.1323 28.4009 49.3002 28.1742 50.3102 27.6052C51.5412 26.9073 53.5343 25.4003 53.6786 23.88C53.7958 22.6531 52.4837 21.2306 51.2572 21.155C49.7782 21.0617 48.5426 22.5553 48.006 23.7289C47.8257 24.1112 48.4119 24.4535 48.5877 24.0623Z" fill="#46A358"/>
<path d="M23.3003 24.8358C23.4491 23.6667 23.8955 23.2355 24.635 23.5511C24.8965 23.5556 25.113 23.6489 25.2934 23.8312C25.6496 24.0623 25.8841 24.4046 26.096 24.7647C26.4748 25.4093 26.6506 26.1605 26.9302 26.8451C27.2864 27.7253 27.7554 28.441 28.5625 28.9655C28.9277 29.2055 29.2659 28.6277 28.9052 28.3876C26.9212 27.0896 27.4758 23.72 24.9957 22.9021C23.5077 22.4131 22.0107 23.6845 22.7186 25.1692C22.9035 25.5604 23.4852 25.2226 23.3003 24.8358Z" fill="#46A358"/>
<path d="M47.5326 7.58367C47.1809 5.66329 49.2325 4.13411 50.8017 5.53438C51.6675 6.30786 52.0012 7.73036 52.0057 8.84169C52.0147 10.3486 51.3158 11.6956 51.6134 13.207C51.6945 13.6293 52.3484 13.4515 52.2672 13.0292C51.8929 11.131 52.9661 9.31289 52.4836 7.34362C52.1951 6.16561 51.6089 4.85425 50.3733 4.40972C48.1458 3.61401 46.509 5.73887 46.8787 7.75703C46.9599 8.17934 47.6092 8.00152 47.5326 7.58367Z" fill="#46A358"/>
<path d="M47.1944 11.98C48.2946 14.2605 48.8357 16.2609 48.7546 18.7902C48.741 19.2214 49.4174 19.217 49.4309 18.7902C49.5166 16.1319 48.9304 14.0293 47.7806 11.6466C47.5912 11.2599 47.0095 11.5977 47.1944 11.98Z" fill="#46A358"/>
<path d="M64.735 10.0729C65.3888 8.60153 66.6243 7.67246 68.0538 6.97455C68.4641 6.76117 68.8879 6.5878 69.3298 6.45C71.2372 7.09012 71.7197 7.97474 70.7773 9.11274C70.3264 9.81065 69.6725 10.4374 69.1089 11.0509C66.9625 13.3847 64.6448 15.5451 62.1963 17.5633C61.8627 17.8389 62.3406 18.3101 62.6743 18.0345C64.8883 16.2119 66.9941 14.2737 68.9601 12.1933C70.1415 10.9442 72.4096 9.09051 71.9136 7.1168C70.9261 3.20493 64.9785 7.86805 64.1488 9.73952C63.9775 10.1263 64.5637 10.4641 64.735 10.0729Z" fill="#46A358"/>
<path d="M60.9158 19.9858C58.7559 21.5506 57.4437 23.831 57.1957 26.4582C57.1551 26.885 57.8315 26.8805 57.8721 26.4582C58.0976 24.0844 59.306 21.9729 61.2585 20.5593C61.6057 20.3104 61.2675 19.728 60.9158 19.9858Z" fill="#46A358"/>
<path d="M65.195 31.1082C65.6369 30.8459 66.0788 30.5703 66.5432 30.3436C66.8949 30.1524 67.2647 30.0057 67.6525 29.9035C68.3785 29.6056 68.622 30.1613 68.3785 31.5705C67.9005 32.4995 65.3122 32.5351 64.5096 32.4862C62.503 32.3706 60.6137 31.8283 58.6341 32.4284C58.2193 32.5529 58.3952 33.1974 58.8145 33.073C61.1908 32.3484 63.504 33.4019 65.9029 33.1397C67.2061 32.993 69.0503 32.4017 69.6996 31.1571C70.0604 30.4636 69.9747 29.5479 69.1856 29.17C67.8915 28.5521 65.8714 29.9213 64.8523 30.5303C64.4825 30.757 64.8207 31.3349 65.195 31.1082Z" fill="#46A358"/>
<path d="M55.1395 33.5886C51.6224 36.4025 50.3417 40.67 49.9855 44.973C49.9495 45.3998 50.6258 45.3998 50.6619 44.973C51.0046 40.8345 52.2356 36.7626 55.6175 34.0598C55.9557 33.7887 55.4732 33.3219 55.1395 33.5886Z" fill="#46A358"/>
<path d="M40.0022 34.722C38.9561 36.5091 38.9877 38.4561 39.2176 40.4565C39.4115 42.1368 39.6325 43.786 40.8094 45.0929C41.098 45.413 41.5759 44.9418 41.2873 44.6217C40.133 43.3415 39.9887 41.5634 39.8354 39.9275C39.6731 38.2249 39.6956 36.5757 40.5884 35.0554C40.8049 34.6865 40.2232 34.3531 40.0022 34.722Z" fill="#46A358"/>
<path d="M21.3433 30.3301C19.3864 30.3568 20.1619 32.3883 21.2081 33.1173C22.5157 34.0286 24.0037 34.6376 25.3926 35.4066C27.0294 36.3135 27.6877 37.8427 28.9458 39.1185C29.2479 39.4252 29.7259 38.954 29.4238 38.6473C28.1747 37.3804 27.5705 35.8645 25.9607 34.9577C25.1491 34.4998 24.2968 34.1131 23.4807 33.673C23.0568 33.4463 22.633 33.2195 22.2271 32.9662C22.0648 32.8684 21.898 32.7661 21.7356 32.6683C20.9285 32.366 20.8022 31.8104 21.3478 31.0013C21.7762 30.9924 21.7762 30.3257 21.3433 30.3301Z" fill="#46A358"/>
<path d="M72.2383 33.402C72.2608 34.2911 71.846 34.7756 70.9848 34.8601C70.5699 35.0245 70.1596 35.1846 69.7447 35.349C69.127 35.5935 68.5047 35.838 67.887 36.0825C66.444 36.6515 64.9966 37.225 63.5536 37.794C63.1523 37.9495 63.3282 38.5986 63.734 38.4385C65.3844 37.7851 67.0347 37.1361 68.6851 36.4826C69.9071 35.9981 71.4672 35.6513 72.5539 34.8956C73.4964 34.2377 73.5234 32.873 72.2338 32.7352C71.8054 32.6863 71.8099 33.3576 72.2383 33.402Z" fill="#46A358"/>
<path d="M62.0025 38.7183C60.1898 40.4076 58.7604 42.3902 57.7503 44.6395C57.5745 45.0262 58.1561 45.3685 58.3365 44.9773C59.324 42.7814 60.7083 40.8432 62.4849 39.194C62.7961 38.8962 62.3181 38.425 62.0025 38.7183Z" fill="#46A358"/>
<path d="M30.5511 41.6347C31.0696 42.3904 31.4033 43.2038 31.5611 44.1018C31.6333 44.5241 32.2871 44.3463 32.215 43.924C32.0481 42.9771 31.6829 42.0925 31.1373 41.2968C30.8938 40.9456 30.3076 41.279 30.5511 41.6347Z" fill="#46A358"/>
</g>
<defs>
<clipPath id="clip0_82645_302">
<rect width="55" height="48" fill="white" transform="translate(19 45)"/>
</clipPath>
<clipPath id="clip1_82645_302">
<rect width="61" height="46" fill="white" transform="translate(16)"/>
</clipPath>
</defs>
</svg>
