<svg width="83" height="90" viewBox="0 0 83 90" fill="none" xmlns="http://www.w3.org/2000/svg">
<circle cx="37" cy="53" r="37" fill="#46A358" fill-opacity="0.13"/>
<g clip-path="url(#clip0_82645_303)">
<path d="M22.2488 40.7766C39.0216 39.0238 55.9382 41.7144 72.6698 39.29C73.4515 39.1753 73.1182 37.9918 72.3407 38.1064C55.7284 40.5104 38.9064 37.8075 22.2488 39.548C21.4672 39.6299 21.459 40.8585 22.2488 40.7766Z" fill="#727272"/>
<path d="M22.0843 39.5727C20.4469 40.0806 20.6526 42.2101 21.5207 43.3404C22.9441 45.1915 26.1407 45.2324 28.2265 45.0358C29.0122 44.9621 29.0163 43.7335 28.2265 43.8073C26.8771 43.9342 25.4783 43.9219 24.166 43.537C23.483 43.3363 22.7631 43.0537 22.3723 42.4149C22.1707 42.0831 21.784 40.9528 22.4134 40.7604C23.1704 40.5228 22.8454 39.3352 22.0843 39.5727Z" fill="#727272"/>
<path d="M69.7818 39.6751C70.6498 39.6218 71.4891 39.4744 72.353 39.3597C73.723 39.1755 74.4265 39.544 74.6651 40.9774C74.8626 42.1691 74.1097 42.5172 73.0483 42.853C72.5464 43.0127 72.0198 43.111 71.5014 43.2134C70.115 43.4837 68.7245 43.6188 67.3134 43.668C66.5235 43.6966 66.5194 44.9252 67.3134 44.8966C69.7201 44.8106 76.4794 44.7205 76.2161 40.9323C76.1502 39.9863 75.2328 38.6799 74.373 38.254C73.0894 37.6152 71.09 38.3646 69.7777 38.4465C68.9919 38.4956 68.9878 39.7242 69.7818 39.6751Z" fill="#727272"/>
<path d="M24.0549 44.7736C23.8862 47.3741 20.9241 48.8443 19.3526 50.6298C18.1184 52.0345 17.1475 53.6521 16.444 55.3762C14.9301 59.0702 14.6421 63.2105 15.4114 67.1051C16.9953 75.095 23.0593 81.6884 30.6331 84.5182C31.3778 84.7967 31.6987 83.6091 30.9623 83.3347C23.0963 80.3943 16.9829 73.0269 16.3 64.5783C15.975 60.5649 16.8266 56.3878 19.077 53.0092C20.9447 50.208 25.0546 48.4143 25.2891 44.7736C25.3384 43.9873 24.1042 43.9873 24.0549 44.7736Z" fill="#727272"/>
<path d="M70.8226 44.2495C70.8226 47.4807 73.18 49.5079 75.5784 51.3139C77.6395 52.8619 79.2357 54.369 80.2519 56.7975C81.1364 58.9065 81.626 61.1835 81.737 63.4646C82.1402 71.8558 77.2446 79.645 69.7201 83.3103C69.0084 83.6584 69.6296 84.7191 70.3413 84.371C77.331 80.9678 82.2595 74.0509 82.9177 66.3026C83.251 62.3834 82.5681 58.067 80.5687 54.6311C78.3677 50.8429 72.0568 49.1065 72.0527 44.2495C72.0568 43.4591 70.8226 43.4591 70.8226 44.2495Z" fill="#727272"/>
<path d="M30.267 83.6172C29.4689 85.3823 30.9005 86.9058 32.6778 86.9877C34.6072 87.0819 36.6436 86.6355 38.5772 86.5536C40.8193 86.4553 43.0615 86.4512 45.3036 86.4839C53.6714 86.6109 62.0351 87.2457 70.3659 86.1154C70.6498 86.0785 70.7938 85.7673 70.8185 85.5215C70.8843 84.8335 70.8267 84.3257 70.6251 83.6787C70.3906 82.9251 69.2017 83.2487 69.4362 84.0063C69.646 84.5018 69.6954 85.0096 69.5843 85.5215C69.7365 85.325 69.8846 85.1284 70.0368 84.9277C63.5408 85.8082 56.9873 85.5871 50.4543 85.3823C47.2865 85.284 44.1146 85.1939 40.9469 85.2472C39.4987 85.2717 38.0506 85.3291 36.6025 85.4274C35.8126 85.4806 35.0268 85.5543 34.2411 85.6321C33.661 85.6895 30.4439 86.185 31.3284 84.2274C31.6534 83.519 30.592 82.8965 30.267 83.6172Z" fill="#727272"/>
<path d="M22.0802 51.2237C17.0529 57.3789 16.662 65.9708 21.1751 72.5233C21.3972 72.8468 21.9321 72.5396 21.7099 72.212C17.3614 65.9012 17.6617 57.6042 22.5204 51.6537C22.7631 51.3548 22.3311 50.9166 22.0802 51.2237Z" fill="#727272"/>
<path d="M22.4134 74.8043C22.8166 75.3858 23.2773 75.9223 23.7916 76.4096C24.0796 76.6799 24.5156 76.2499 24.2277 75.9755C23.7504 75.5251 23.3226 75.0336 22.9441 74.4971C22.7219 74.1736 22.1871 74.4767 22.4134 74.8043Z" fill="#727272"/>
<path d="M25.865 78.3387C26.2641 78.3387 26.2641 77.7244 25.865 77.7244C25.466 77.7244 25.466 78.3387 25.865 78.3387Z" fill="#727272"/>
<path d="M69.6296 44.2822C69.3128 45.4617 69.0413 46.6493 69.5062 47.8287C69.9381 48.9222 70.8144 49.9091 71.559 50.8142C73.3445 52.9765 76.9977 55.1593 77.1705 58.1734C77.1911 58.5666 77.8082 58.5707 77.7876 58.1734C77.6601 55.9169 75.9898 54.4713 74.4512 53.0052C73.4597 52.0592 72.5258 51.0558 71.6701 49.9829C71.0942 49.258 70.4442 48.4922 70.1109 47.6199C69.7036 46.5592 69.9381 45.5149 70.222 44.4501C70.3248 44.0652 69.7283 43.9014 69.6296 44.2822Z" fill="#727272"/>
<path d="M77.4379 59.5987C77.5243 60.385 77.6107 61.1713 77.6971 61.9576C77.7382 62.3467 78.3594 62.3508 78.3142 61.9576C78.2278 61.1713 78.1414 60.385 78.055 59.5987C78.0139 59.2097 77.3968 59.2056 77.4379 59.5987Z" fill="#727272"/>
<path d="M77.4955 63.5752C77.5408 63.8046 77.5037 64.0216 77.4174 64.2346C77.3556 64.3902 77.4873 64.5704 77.6313 64.6113C77.8082 64.6605 77.9481 64.5499 78.0098 64.3984C78.1373 64.0789 78.1538 63.7472 78.0879 63.4114C78.018 63.0264 77.4215 63.1903 77.4955 63.5752Z" fill="#727272"/>
<path d="M50.7423 59.0825C52.2151 56.2977 54.9879 54.4753 58.2091 54.635C62.0434 54.8234 66.0751 58.1447 63.3887 62.068C61.813 64.3654 58.9826 65.852 56.8968 67.6621C54.5806 69.6729 52.4619 71.8884 50.5078 74.2555C50.0059 74.8616 50.8739 75.7339 51.3799 75.1237C54.3585 71.5158 57.7278 68.4648 61.4304 65.6145C63.9029 63.7061 66.6387 60.8107 65.1371 57.4567C63.8947 54.6801 60.4636 53.3164 57.5715 53.3983C54.1651 53.4965 51.2442 55.495 49.6726 58.46C49.3065 59.1603 50.372 59.7828 50.7423 59.0825Z" fill="#727272"/>
<path d="M50.4502 58.1285C47.8131 55.1758 44.5219 52.133 40.2516 52.3541C37.0839 52.518 34.3563 54.9096 33.8996 58.0589C33.336 61.8961 36.2158 65.2625 39.0216 67.4862C42.4691 70.2177 47.6691 71.1637 50.2486 74.8659C50.697 75.5129 51.7667 74.8986 51.3141 74.2475C49.7056 71.9378 47.3647 70.7501 44.8799 69.5543C41.7203 68.035 38.606 66.1552 36.5737 63.223C34.3069 59.9591 34.6813 54.9669 39.075 53.7711C43.3741 52.604 46.9944 56.1095 49.5739 58.9967C50.1046 59.5905 50.9768 58.7182 50.4502 58.1285Z" fill="#727272"/>
</g>
<g clip-path="url(#clip1_82645_303)">
<path d="M46.4719 12.629C45.283 14.782 43.4688 16.507 41.1404 17.4C40.2313 17.7507 39.0342 17.7303 39.1535 16.4866C39.2275 15.7118 40.0667 15.039 40.6756 14.676C41.7123 14.0562 43.041 13.8523 44.1558 13.3711C44.8799 13.0571 44.2546 12.001 43.5347 12.315C41.5436 13.1754 39.3633 13.3793 38.232 15.4671C37.6273 16.5844 37.4298 18.1381 38.7915 18.7742C40.2683 19.4634 42.3005 18.3501 43.5264 17.5672C45.2295 16.4825 46.5665 15.0022 47.5332 13.2447C47.9199 12.5556 46.8545 11.9357 46.4719 12.629Z" fill="#46A358"/>
<path d="M43.8967 12.119C42.3992 12.2821 40.9142 12.2903 39.4291 12.013C38.8861 11.9111 38.3472 11.7724 37.8206 11.6052C37.3763 11.4747 36.9485 11.3157 36.5248 11.1241C35.8954 10.333 35.9571 9.89256 36.7181 9.7947C38.9478 8.09018 42.4321 9.88033 44.6207 10.7081C45.3653 10.9895 45.6861 9.80693 44.9498 9.52964C43.0451 8.80787 40.9553 7.72318 38.8614 7.95561C37.6602 8.0861 34.8916 8.60398 34.5707 10.1005C33.8302 13.5667 42.1072 13.5422 43.8967 13.3465C44.6783 13.2567 44.6865 12.0334 43.8967 12.119Z" fill="#46A358"/>
<path d="M45.353 9.54986C43.4812 8.07778 41.8192 5.78606 41.9097 3.30268C41.9509 2.1976 42.6584 1.72865 43.6828 2.22614C44.2463 2.49936 44.6372 3.19666 44.9457 3.72269C45.6615 4.95419 45.9618 6.36102 46.2251 7.7434C46.3732 8.5141 47.5621 8.18788 47.414 7.41717C47.019 5.35381 46.4554 3.20481 44.9169 1.66341C44.0078 0.75406 42.4939 -0.289855 41.4243 0.933483C38.9231 3.79202 42.1977 8.61604 44.4808 10.4144C45.0979 10.8996 45.9782 10.0392 45.353 9.54986Z" fill="#46A358"/>
<path d="M47.3852 7.75588C47.6567 5.79038 48.5206 2.05104 50.7996 1.41491C52.9182 0.827707 52.7084 4.20412 52.116 5.32143C51.5195 6.4469 50.3471 7.50305 49.4955 8.44502C48.969 9.02815 49.837 9.89672 50.3676 9.30951C51.5894 7.95569 53.416 6.40205 53.6792 4.49772C53.8849 3.02156 53.7738 0.791007 52.1325 0.13856C50.635 -0.456797 49.1541 0.897029 48.3025 1.96133C47.0478 3.52721 46.4637 5.46823 46.1922 7.4215C46.0852 8.20035 47.2741 8.53473 47.3852 7.75588Z" fill="#46A358"/>
<path d="M50.454 9.46471C51.8897 8.274 54.5554 7.4462 56.3079 8.51866C58.5787 9.91327 55.3617 10.7492 54.3004 10.8185C53.165 10.896 52.0296 10.8267 50.9024 10.6962C50.1167 10.6065 50.1208 11.8298 50.9024 11.9195C52.7454 12.1316 55.2342 12.4048 56.9497 11.4995C58.0151 10.9368 58.7803 9.57481 58.1262 8.42895C57.3939 7.14445 55.3329 6.83454 53.996 6.87124C52.3381 6.92017 50.8448 7.5563 49.586 8.60022C48.973 9.10587 49.8493 9.97036 50.454 9.46471Z" fill="#46A358"/>
<path d="M50.5857 11.8786C51.8568 12.3435 53.1198 13.0449 53.8438 14.2274C54.7488 15.7117 54.7694 18.4439 52.1366 17.9341C49.8205 17.4856 48.1462 15.0471 47.6731 12.9307C47.5003 12.1641 46.3115 12.4862 46.4842 13.2569C46.9038 15.1408 47.9529 16.8046 49.5243 17.9586C50.7585 18.8679 52.9264 19.9526 54.3786 18.921C55.8719 17.8607 55.8719 15.6669 55.1972 14.1581C54.3991 12.3802 52.7002 11.3485 50.923 10.6961C50.1661 10.4269 49.8452 11.6095 50.5857 11.8786Z" fill="#46A358"/>
<path d="M38.1045 15.2467C34.5008 17.3998 31.8433 19.7976 31.2139 24.1119C30.5269 28.7972 31.6253 33.6947 32.629 38.2577C32.7977 39.0284 33.9866 38.7022 33.8179 37.9315C32.9293 33.8945 32.0202 29.7107 32.2958 25.5554C32.5961 21.025 34.9657 18.5498 38.7215 16.307C39.4044 15.8992 38.7874 14.839 38.1045 15.2467Z" fill="#46A358"/>
<path d="M54.0083 13.8645C59.0477 14.2559 62.6143 18.2685 63.9678 22.8642C65.4405 27.8676 64.6178 33.1361 63.8156 38.1763C63.6922 38.947 64.881 39.2773 65.0045 38.5025C65.9424 32.5897 66.8844 26.3099 64.4614 20.6091C62.6267 16.2908 58.8173 13.0163 54.0083 12.6411C53.2144 12.58 53.2185 13.8033 54.0083 13.8645Z" fill="#46A358"/>
<path d="M39.3263 17.7833C33.2996 22.1302 35.2536 31.9577 36.4713 38.0662C36.6235 38.8369 37.8165 38.5107 37.6602 37.74C37.0225 34.543 36.4302 31.3093 36.4919 28.039C36.5536 24.8583 37.1583 20.8498 39.9474 18.8395C40.5851 18.3787 39.9721 17.3184 39.3263 17.7833Z" fill="#46A358"/>
<path d="M46.0934 13.8278C43.8514 17.2491 42.4034 21.074 41.8768 25.1273C41.6012 27.2519 41.5806 29.405 41.8357 31.5336C42.1113 33.8579 42.8641 36.0925 43.1438 38.4169C43.2343 39.1876 44.4726 39.1998 44.378 38.4169C43.8926 34.3595 42.642 30.6242 42.9711 26.473C43.3125 22.1628 44.7935 18.0605 47.163 14.4435C47.5908 13.7829 46.5254 13.1713 46.0934 13.8278Z" fill="#46A358"/>
<path d="M49.1088 17.6079C50.9477 20.6173 51.3344 24.0222 51.6552 27.4598C51.9885 31.036 52.26 34.6163 52.4903 38.2007C52.5397 38.9836 53.7738 38.9877 53.7245 38.2007C53.4653 34.1433 53.1732 30.0859 52.7536 26.0407C52.4245 22.8641 51.8692 19.7528 50.1743 16.988C49.7629 16.3193 48.6933 16.9309 49.1088 17.6079Z" fill="#46A358"/>
<path d="M54.7241 18.1789C59.3192 23.9082 59.4714 31.2237 59.3069 38.2049C59.2904 38.9919 60.5245 38.9919 60.541 38.2049C60.7138 30.8404 60.4176 23.3291 55.5962 17.3144C55.1026 16.6986 54.2346 17.5713 54.7241 18.1789Z" fill="#46A358"/>
<path d="M46.9532 19.6712C46.8833 19.9444 46.8174 20.2136 46.7475 20.4868C46.6529 20.8701 47.2453 21.0332 47.344 20.6499C47.4139 20.3767 47.4798 20.1075 47.5497 19.8343C47.6443 19.4551 47.0519 19.292 46.9532 19.6712Z" fill="#46A358"/>
<path d="M48.286 21.7957C48.286 22.1015 48.286 22.4074 48.286 22.7132C48.286 23.1087 48.9031 23.1087 48.9031 22.7132C48.9031 22.4074 48.9031 22.1015 48.9031 21.7957C48.9031 21.4001 48.286 21.4001 48.286 21.7957Z" fill="#46A358"/>
<path d="M45.3077 23.7328C45.2748 24.1732 45.2378 24.6177 45.2049 25.0581C45.1761 25.4496 45.7931 25.4496 45.8219 25.0581C45.8548 24.6177 45.8919 24.1732 45.9248 23.7328C45.9536 23.3413 45.3365 23.3413 45.3077 23.7328Z" fill="#46A358"/>
<path d="M49.3145 25.8733C49.3145 26.2811 49.3145 26.6889 49.3145 27.0967C49.3145 27.4922 49.9316 27.4922 49.9316 27.0967C49.9316 26.6889 49.9316 26.2811 49.9316 25.8733C49.9316 25.4778 49.3145 25.4778 49.3145 25.8733Z" fill="#46A358"/>
<path d="M46.9491 28.1162C46.9491 28.5566 46.9491 29.0011 46.9491 29.4415C46.9491 29.8371 47.5662 29.8371 47.5662 29.4415C47.5662 29.0011 47.5662 28.5566 47.5662 28.1162C47.5662 27.7207 46.9491 27.7207 46.9491 28.1162Z" fill="#46A358"/>
<path d="M45.6121 32.6018C45.6121 33.2135 45.6121 33.8252 45.6121 34.4368C45.6121 34.8324 46.2292 34.8324 46.2292 34.4368C46.2292 33.8252 46.2292 33.2135 46.2292 32.6018C46.2292 32.2063 45.6121 32.2063 45.6121 32.6018Z" fill="#46A358"/>
<path d="M43.7815 28.6014C43.8514 29.0092 43.9255 29.417 43.9954 29.8247C44.0612 30.2121 44.6577 30.049 44.5919 29.6616C44.522 29.2539 44.4479 28.8461 44.378 28.4383C44.308 28.055 43.7115 28.2181 43.7815 28.6014Z" fill="#46A358"/>
<path d="M48.5 34.6408C48.5329 35.0486 48.5699 35.4564 48.6028 35.8642C48.6357 36.2556 49.2528 36.2556 49.2199 35.8642C49.187 35.4564 49.15 35.0486 49.117 34.6408C49.0841 34.2494 48.4629 34.2453 48.5 34.6408Z" fill="#46A358"/>
<path d="M50.3471 30.0532C50.38 30.461 50.417 30.8687 50.4499 31.2765C50.4828 31.6639 51.0999 31.668 51.067 31.2765C51.0341 30.8687 50.997 30.461 50.9641 30.0532C50.9312 29.6617 50.3142 29.6576 50.3471 30.0532Z" fill="#46A358"/>
<path d="M57.431 16.4008C57.9082 16.8127 58.3854 17.2245 58.8626 17.6323C59.1629 17.8892 59.5989 17.457 59.2986 17.2001C58.8214 16.7882 58.3442 16.3764 57.867 15.9686C57.5708 15.7117 57.1307 16.1398 57.431 16.4008Z" fill="#46A358"/>
<path d="M57.6902 19.8058C57.9576 20.2829 58.2291 20.764 58.4965 21.2411C58.6898 21.5837 59.2246 21.2779 59.0312 20.9312C58.7638 20.4541 58.4923 19.973 58.2249 19.4959C58.0275 19.1533 57.4968 19.4632 57.6902 19.8058Z" fill="#46A358"/>
<path d="M60.1625 20.0055C60.467 20.4173 60.7714 20.8292 61.0758 21.2369C61.3062 21.5509 61.8451 21.2451 61.6106 20.927C61.3062 20.5152 61.0017 20.1033 60.6973 19.6955C60.4628 19.3856 59.928 19.6874 60.1625 20.0055Z" fill="#46A358"/>
<path d="M61.6846 25.3393C61.7875 26.0529 61.8944 26.7665 61.9973 27.4801C62.0549 27.8675 62.6473 27.7044 62.5938 27.317C62.4909 26.6034 62.384 25.8898 62.2811 25.1761C62.2194 24.7888 61.627 24.9559 61.6846 25.3393Z" fill="#46A358"/>
<path d="M59.6113 23.5083C59.7141 23.8468 59.817 24.1893 59.9198 24.5278C60.035 24.9029 60.6274 24.7439 60.5163 24.3647C60.4135 24.0262 60.3106 23.6837 60.2078 23.3452C60.0926 22.9701 59.4961 23.1291 59.6113 23.5083Z" fill="#46A358"/>
<path d="M62.8817 31.1746C62.927 31.6599 62.9188 32.1452 62.8406 32.6263C62.7789 33.0096 63.3713 33.1768 63.4371 32.7894C63.5235 32.2512 63.5523 31.717 63.5029 31.1746C63.4618 30.7873 62.8447 30.7832 62.8817 31.1746Z" fill="#46A358"/>
<path d="M61.4501 33.1116C61.4501 33.4868 61.4501 33.8578 61.4501 34.233C61.4501 34.6285 62.0672 34.6285 62.0672 34.233C62.0672 33.8578 62.0672 33.4868 62.0672 33.1116C62.0672 32.7161 61.4501 32.7161 61.4501 33.1116Z" fill="#46A358"/>
<path d="M62.0878 22.8928C62.2565 23.3006 62.4292 23.7084 62.5979 24.1162C62.6637 24.2711 62.8036 24.3771 62.9764 24.3282C63.1204 24.2915 63.2561 24.1039 63.1903 23.953C63.0216 23.5453 62.8488 23.1375 62.6802 22.7297C62.6144 22.5747 62.4745 22.4687 62.3017 22.5177C62.1577 22.5544 62.0261 22.7419 62.0878 22.8928Z" fill="#46A358"/>
<path d="M60.9359 29.9512C60.9359 30.1877 60.9359 30.4283 60.9359 30.6648C60.9359 31.0604 61.553 31.0604 61.553 30.6648C61.553 30.4283 61.553 30.1877 61.553 29.9512C61.553 29.5557 60.9359 29.5557 60.9359 29.9512Z" fill="#46A358"/>
<path d="M62.1701 36.7817C62.1536 37.0712 62.0837 37.3485 61.9767 37.6177C61.915 37.7726 62.0466 37.952 62.1906 37.9928C62.3675 38.0417 62.5074 37.9316 62.5691 37.7808C62.7007 37.4586 62.7666 37.1283 62.7871 36.7817C62.8118 36.3862 62.1947 36.3902 62.1701 36.7817Z" fill="#46A358"/>
<path d="M36.2903 18.8841C36.0805 19.1859 35.8707 19.4876 35.6567 19.7894C35.4305 20.1156 35.9653 20.4214 36.1915 20.0993C36.4013 19.7975 36.6111 19.4958 36.8251 19.194C37.0472 18.8678 36.5124 18.5619 36.2903 18.8841Z" fill="#46A358"/>
<path d="M34.5296 23.3453C34.4514 23.7164 34.3774 24.0874 34.2992 24.4626C34.2211 24.8459 34.8135 25.0131 34.8957 24.6257C34.9739 24.2546 35.0479 23.8836 35.1261 23.5084C35.2043 23.1251 34.6078 22.962 34.5296 23.3453Z" fill="#46A358"/>
<path d="M34.3321 21.1228C34.0071 21.551 33.7644 22.024 33.5999 22.5337C33.4765 22.9088 34.073 23.0679 34.1964 22.6968C34.3486 22.236 34.5748 21.8201 34.8669 21.4327C35.1055 21.1146 34.5666 20.8129 34.3321 21.1228Z" fill="#46A358"/>
<path d="M33.0774 25.1803C33.0034 25.69 32.9252 26.1957 32.8512 26.7054C32.7936 27.0887 33.3901 27.2559 33.4477 26.8685C33.5217 26.3588 33.5999 25.8531 33.6739 25.3434C33.7315 24.956 33.135 24.7888 33.0774 25.1803Z" fill="#46A358"/>
<path d="M33.6945 28.1163C33.641 28.626 33.6739 29.1276 33.7727 29.6292C33.8467 30.0165 34.4432 29.8534 34.3692 29.466C34.2828 29.0175 34.2663 28.5689 34.3157 28.1163C34.3486 27.7248 33.7315 27.7289 33.6945 28.1163Z" fill="#46A358"/>
<path d="M34.2005 31.9902C34.2334 32.296 34.2704 32.6018 34.3033 32.9077C34.3198 33.0708 34.4309 33.2135 34.6119 33.2135C34.7641 33.2135 34.941 33.0749 34.9204 32.9077C34.8875 32.6018 34.8505 32.296 34.8176 31.9902C34.8011 31.827 34.69 31.6843 34.509 31.6843C34.3568 31.6843 34.184 31.823 34.2005 31.9902Z" fill="#46A358"/>
<path d="M33.2008 34.2901C33.4394 34.6775 33.6122 35.0852 33.7192 35.5297C33.8138 35.913 34.4062 35.7499 34.3157 35.3666C34.1964 34.8773 33.9989 34.4124 33.7356 33.9802C33.5258 33.6458 32.9952 33.9557 33.2008 34.2901Z" fill="#46A358"/>
<path d="M34.5173 36.8632C34.5872 37.0345 34.653 37.2017 34.7229 37.373C34.7846 37.5238 34.9286 37.6339 35.1014 37.585C35.2495 37.5442 35.3811 37.3648 35.3153 37.2099C35.2454 37.0386 35.1796 36.8714 35.1096 36.7001C35.0479 36.5492 34.9039 36.4391 34.7312 36.4881C34.5872 36.5248 34.4555 36.7083 34.5173 36.8632Z" fill="#46A358"/>
</g>
<defs>
<clipPath id="clip0_82645_303">
<rect width="68" height="49" fill="white" transform="translate(15 38)"/>
</clipPath>
<clipPath id="clip1_82645_303">
<rect width="35" height="39" fill="white" transform="translate(31)"/>
</clipPath>
</defs>
</svg>
